<?xml version="1.0" standalone="no"?>
<!DOCTYPE svg PUBLIC "-//W3C//DTD SVG 1.1//EN" "http://www.w3.org/Graphics/SVG/1.1/DTD/svg11.dtd" >
<svg xmlns="http://www.w3.org/2000/svg">
<metadata></metadata>
<defs>
<font id="esri_weatherregular" horiz-adv-x="534" >
<font-face units-per-em="2048" ascent="1638" descent="-410" />
<missing-glyph horiz-adv-x="1024" />
<glyph horiz-adv-x="0" />
<glyph horiz-adv-x="682" />
<glyph unicode=" "  horiz-adv-x="1024" />
<glyph unicode="&#x09;" horiz-adv-x="1024" />
<glyph unicode="&#xa0;" horiz-adv-x="1024" />
<glyph unicode="!" horiz-adv-x="313" d="M23 664q0 55 35.5 95t88.5 42v1003q0 10 12.5 12.5t12.5 6.5v-2q35 12 125 47l27 10q12 0 12 -12q0 -8 -80 -39q-23 -8 -84 -33v-993q55 -2 91 -42t36 -95q0 -57 -41 -97.5t-98 -40.5t-97 40t-40 98zM47 664q0 -47 33 -80t80 -33t80.5 33t33.5 80t-33.5 79.5t-80.5 32.5 t-80 -32.5t-33 -79.5z" />
<glyph unicode="&#x22;" horiz-adv-x="684" d="M121 705q0 55 36 96t91 43v1018q0 12 12 12q2 0 4 -2h2q4 2 27.5 10t138.5 53l129 52q20 8 35 12q12 0 12 -12q0 -8 -80 -41q-72 -29 -188 -72q-18 -6 -68 -27v-1003q55 -2 92 -43t37 -96q0 -57 -42 -98.5t-99 -41.5t-98 41t-41 99zM145 705q0 -47 34 -81t81 -34t81 34 t34 81t-34 80.5t-81 33.5t-81 -33.5t-34 -80.5z" />
<glyph unicode="#" horiz-adv-x="487" d="M113 702q0 55 36.5 96.5t92.5 43.5v1018q0 12 12 12h2l2 -2q4 2 29 12q41 14 137 51l131 52q31 12 35 12q10 0 10 -12q0 -8 -12 -15q-84 -33 -254 -98q-23 -6 -68 -27v-100q51 20 125 49l27 10q12 0 12 -12q0 -16 -80 -41q-27 -8 -84 -33v-876q55 -2 91 -43t36 -97 q0 -57 -41 -98t-98 -41q-59 0 -100 40t-41 99zM139 702q0 -49 33 -81.5t82 -32.5q47 0 81 33.5t34 80.5t-34 81t-81 34q-49 0 -82 -32.5t-33 -82.5z" />
<glyph unicode="$" horiz-adv-x="487" d="M115 705q0 55 35.5 96t91.5 43v1018q0 10 12 10h6q2 2 29 10q88 35 266 103l35 12q12 0 12 -12q0 -8 -14 -13q-31 -16 -254 -100q-18 -6 -68 -25v-100q25 8 164 63q27 10 129 50q25 8 31 10q12 0 12 -12q0 -8 -14 -13q-31 -16 -254 -100q-18 -6 -68 -25v-876 q55 -2 92 -43t37 -96q0 -59 -41 -100.5t-100 -41.5t-99 41t-40 101zM139 705q0 -47 34 -81t81 -34t81 34t34 81t-34 80.5t-81 33.5t-81 -33.5t-34 -80.5z" />
<glyph unicode="%" horiz-adv-x="487" d="M115 696q0 55 35.5 96.5t91.5 43.5v1017q0 12 14 13h2l2 -2q4 2 29 12q41 14 137 51l131 51q31 12 35 13q10 0 10 -13q0 -8 -12 -14q-84 -33 -254 -98q-23 -6 -68 -27v-100q4 2 162 63q10 4 53 20.5t75 29t34 12.5q10 -1 10 -13q0 -8 -80 -41q-53 -20 -186 -71 q-23 -6 -68 -27v-100l123 49q25 10 29 10q12 0 12 -12q0 -8 -80 -39q-23 -8 -84 -35v-749q55 -2 91 -43t36 -97q0 -57 -41 -98t-98 -41q-59 0 -100 40t-41 99zM141 696q0 -49 33 -81.5t82 -32.5q47 0 81 33.5t34 80.5t-34 81t-81 34q-49 0 -82 -33t-33 -82z" />
<glyph unicode="&#x26;" horiz-adv-x="487" d="M113 702q0 55 35.5 96.5t91.5 43.5v1020q0 10 12 10h4l2 -2q4 4 29 12q90 35 268 103q20 8 33 12q12 0 12 -12q0 -8 -12 -15q-84 -33 -256 -98q-18 -6 -68 -27v-98q29 8 164 61q10 4 53 20.5t76 29.5q14 6 31 12q12 0 12 -12q0 -8 -12 -15q-84 -33 -256 -98 q-18 -6 -68 -27v-98q29 8 164 61q10 4 53 20.5t76 29.5q14 6 31 12q12 0 12 -12q0 -8 -12 -15q-84 -33 -256 -98q-18 -6 -68 -27v-749q57 -2 93 -42t36 -98q0 -59 -41 -99t-100 -40q-57 0 -98 41t-41 98zM137 702q0 -47 34 -80.5t81 -33.5q49 0 82 32.5t33 81.5t-33 82 t-82 33t-82 -32.5t-33 -82.5z" />
<glyph unicode="'" horiz-adv-x="487" d="M113 696q0 55 36.5 96.5t92.5 43.5v1017q0 12 12 13l2 -2h2q4 2 29 10q35 12 137 53l131 51q31 12 35 13q10 0 10 -13q0 -8 -80 -41q-53 -20 -186 -71q-23 -6 -68 -27v-100q4 2 162 63q10 4 53 20.5t75 29t34 12.5q10 0 10 -13q0 -8 -80 -41q-53 -20 -186 -71 q-23 -6 -68 -27v-100q4 2 162 63q10 4 53 20.5t75 29t34 12.5q10 -1 10 -15q0 -8 -12 -12q-39 -18 -254 -98q-31 -10 -68 -27v-100l123 49q25 10 29 10q12 0 12 -12q0 -10 -80 -41q-23 -8 -84 -33v-622q55 -2 91 -43t36 -97q0 -57 -41 -98t-98 -41q-59 0 -100 40t-41 99z M139 696q0 -49 33 -81.5t82 -32.5q47 0 81 33.5t34 80.5t-34 81t-81 34q-49 0 -82 -33t-33 -82z" />
<glyph unicode="(" horiz-adv-x="489" d="M121 702q0 55 37 96.5t92 43.5v1024q0 10 12 10h6q51 18 166 63q45 18 131 52q20 8 35 12q12 0 12 -12q0 -8 -80 -41q-8 -4 -190 -72q-18 -6 -68 -27v-100q25 8 164 64l131 49q27 10 31 10q12 0 12 -12q0 -8 -14 -13q-55 -25 -256 -100q-18 -6 -68 -27v-100q23 8 164 64 l131 51q27 10 31 10q12 0 12 -12q0 -8 -80 -41q-68 -27 -190 -72q-18 -6 -68 -27v-100q25 8 164 64q37 12 131 49l31 12q12 0 12 -12q0 -10 -14 -15q-55 -25 -256 -100q-18 -6 -68 -25v-626q55 -2 92 -43t37 -97q0 -82 -63 -118q-27 -14 -33 -15h-90q-39 0 -74 56 q-23 35 -22 77zM147 702q0 -49 33 -82.5t82 -33.5t83 33.5t34 82.5t-34 82t-83 33q-47 0 -81 -33.5t-34 -81.5z" />
<glyph unicode=")" horiz-adv-x="487" d="M113 702q0 57 35.5 97.5t93.5 42.5v1020q0 10 12 10h2q2 0 4 -2q4 4 27 12q41 14 137 51l131 52q20 8 35 12q10 0 10 -12q0 -8 -12 -15q-84 -33 -254 -98q-23 -6 -68 -27v-98q27 8 162 61q10 4 53 20.5t75 29t34 12.5q10 0 10 -12q0 -8 -12 -15q-84 -33 -254 -98 q-23 -6 -68 -27v-100q4 2 162 63q10 4 53 20.5t75 29t34 12.5q10 0 10 -12q0 -8 -12 -15q-84 -33 -254 -98q-23 -6 -68 -27v-100q4 2 162 63q10 4 53 20.5t75 29t34 12.5q10 0 10 -12q0 -8 -80 -41q-53 -20 -186 -72q-23 -6 -68 -27v-100l123 49q27 10 31 10q12 0 12 -12 q0 -8 -82 -39q-23 -8 -84 -35v-495q55 -2 91 -43t36 -97q0 -57 -41 -98t-98 -41q-59 0 -100 40t-41 99zM139 702q0 -47 34 -80.5t81 -33.5t81 33.5t34 80.5q0 49 -33 82t-82 33t-82 -32.5t-33 -82.5z" />
<glyph unicode="*" d="M121 711q0 61 40 105t101 48v1114q0 12 17 13h364q12 -1 12 -13q0 -10 -88 -43l-92 -34q-31 -10 -113 -41q-25 -8 -73 -29v-967q61 -4 100 -48t39 -105q0 -63 -45 -108.5t-109 -45.5q-63 0 -108 45t-45 109zM150 711q0 -51 36.5 -88t87.5 -37q53 0 90 37t37 90t-36.5 89 t-90.5 36q-53 0 -88.5 -37t-35.5 -90z" />
<glyph unicode="+" d="M129 709q0 61 39 105t100 48v1114q0 12 17 13h366q13 -1 13 -13q0 -10 -89 -43l-92 -35q-23 -8 -112 -40q-35 -12 -66 -25l-10 -4v-117q12 4 137 53q23 8 31 11q14 0 14 -13q0 -10 -88 -45q-29 -8 -94 -37v-819q61 -4 101 -48t40 -105q0 -63 -45 -108.5t-108 -45.5 t-108.5 45t-45.5 109zM158 709q0 -53 35.5 -89t89.5 -36q53 0 89 37t36 90q0 51 -37 88t-88 37q-53 0 -89 -37t-36 -90z" />
<glyph unicode="," d="M121 717q0 59 40 104t99 47v1117q0 12 19 12h364q12 0 12 -15q0 -12 -88 -43l-92 -32q-31 -12 -113 -43q-20 -6 -73 -27v-119q2 0 178 70q39 14 141 53q31 12 35 12q12 0 12 -12t-39 -26q-25 -8 -49 -17q-57 -23 -205 -80q-20 -8 -73 -28v-822q59 -2 99 -47t40 -104 q0 -63 -45 -108.5t-109 -45.5q-63 0 -108 45t-45 109zM150 717q0 -53 35.5 -90t88.5 -37t90 37t37 90t-36.5 89t-90.5 36q-51 0 -87.5 -37t-36.5 -88z" />
<glyph unicode="-" d="M121 717q0 61 39 105t100 46v1117q0 12 16 12h367q12 0 12 -15q0 -10 -18.5 -16t-69.5 -24l-92 -35q-31 -10 -113 -43q-25 -6 -73 -27v-117q33 10 178 68q39 14 141 55q31 12 35 12q12 0 12 -14q0 -10 -14 -14q-127 -53 -279 -109q-20 -8 -73 -28v-109q74 27 135 51 q31 12 33 13q12 0 12 -15q0 -8 -88 -43q-29 -8 -92 -37v-682q61 -2 100 -46t39 -105q0 -63 -45 -108.5t-109 -45.5q-63 0 -108 45t-45 109zM150 717q0 -53 35.5 -90t88.5 -37q51 0 89 38t38 89t-37.5 88t-89.5 37q-51 0 -87.5 -37t-36.5 -88z" />
<glyph unicode="." d="M121 711q0 61 40 106t99 47v1114q0 12 16 13h367q12 0 12 -13q0 -10 -88 -43l-92 -34q-23 -8 -113 -41q-20 -6 -73 -27v-119q41 16 178 70q39 14 141 53q31 12 35 12q12 0 12 -12q0 -10 -88 -45q-57 -23 -205 -80q-25 -6 -73 -26v-111q41 16 178 70q39 14 141 53 q31 12 35 12q12 0 12 -12q0 -10 -88 -45q-27 -10 -205 -80q-25 -6 -73 -27v-682q59 -2 99 -47t40 -106q0 -63 -45 -108.5t-109 -45.5q-63 0 -108 45t-45 109zM150 711q0 -51 36.5 -88t87.5 -37q53 0 90 37t37 90q0 51 -37.5 88t-89.5 37q-53 0 -88.5 -37t-35.5 -90z" />
<glyph unicode="/" d="M123 717q0 61 39 105t100 48v1115q0 12 17 12h366q12 0 12 -12q0 -10 -88 -43l-92 -35q-23 -8 -112 -41q-20 -6 -74 -27v-119q41 16 178 70q39 14 141 53q31 12 35 12q12 0 12 -14q0 -8 -88 -43q-57 -23 -204 -80q-25 -6 -74 -28v-109q41 16 178 70q39 14 141 53 q31 12 35 12q12 0 12 -14q0 -8 -88 -43q-57 -23 -204 -80q-25 -6 -74 -29v-108q10 4 135 53q23 8 31 10q14 0 14 -12q0 -10 -88 -43q-33 -12 -92 -37v-543q59 -2 99 -47t40 -106q0 -63 -45 -108.5t-109 -45.5q-63 0 -108 45t-45 109zM152 717q0 -51 36.5 -88t87.5 -37 q53 0 90 37t37 90q0 51 -37.5 88t-89.5 37q-53 0 -88.5 -37t-35.5 -90z" />
<glyph unicode="0" d="M119 717q0 61 40 105t101 48v1115q0 12 16 12h367q10 0 10 -12q0 -10 -86 -43l-94 -35q-31 -10 -113 -41q-10 -4 -73 -27v-119q2 0 178 70q39 14 141 53q31 12 35 12q12 0 12 -14q0 -10 -86 -43l-207 -80q-23 -6 -73 -28v-109q2 0 178 70q39 14 141 53q31 12 35 12 q12 0 12 -14q0 -10 -86 -43l-207 -80q-23 -6 -73 -27v-110q2 0 178 69q39 14 141 54q31 12 35 12q12 0 12 -12t-86 -45l-207 -80q-23 -6 -73 -27v-543q59 -2 99 -47t40 -106q0 -63 -45 -108.5t-109 -45.5q-63 0 -108 45t-45 109zM147 717q0 -51 37 -88t88 -37q53 0 90 37 t37 90t-36.5 89t-90.5 36q-53 0 -89 -37t-36 -90z" />
<glyph unicode="1" d="M127 711q0 61 40 106t99 47v1114q0 12 17 13h366q12 0 13 -13q0 -10 -89 -43l-94 -34q-43 -16 -112 -41l-74 -27v-119q2 0 178 70q39 14 141 53q29 10 35 12q14 0 15 -12q0 -12 -89 -45q-45 -16 -206 -80q-23 -6 -74 -26v-111q2 0 178 70q39 14 141 53q29 10 35 12 q14 0 15 -12q0 -12 -89 -45q-45 -16 -206 -80q-23 -6 -74 -27v-110q2 0 178 69q39 14 141 54q29 10 35 12q15 0 15 -12t-89 -46q-45 -16 -206 -79q-23 -6 -74 -27v-111q39 16 135 54q23 8 33 10q14 0 14 -12q0 -10 -88 -43q-47 -16 -94 -37v-404q61 -2 101 -47t40 -106 q0 -63 -45 -108.5t-108 -45.5t-108.5 45t-45.5 109zM154 711q0 -53 36.5 -89t90.5 -36q53 0 89 37t36 90q0 51 -37 88t-88 37q-53 0 -90 -37t-37 -90z" />
<glyph unicode="2" d="M121 717q0 61 39 105t100 46v1117q0 12 16 12h367q12 0 12 -15q0 -10 -18 -14q-10 -4 -70 -26l-94 -35q-29 -12 -113 -43q-20 -6 -73 -27v-117q33 8 178 68q39 16 141 55q29 10 35 12q14 0 14 -14q0 -10 -16 -14q-59 -27 -279 -109q-29 -10 -73 -28v-109q33 8 178 68 q39 16 141 55q29 10 35 12q14 0 14 -14q0 -10 -16 -14q-59 -27 -279 -109q-29 -10 -73 -29v-108q37 12 178 67l141 56q29 10 35 12q14 0 14 -14q0 -10 -16 -15q-57 -27 -279 -108q-23 -6 -73 -29v-108q37 12 178 67l141 55q29 10 35 13q14 -1 14 -15q0 -10 -16 -14 q-57 -27 -279 -109q-23 -6 -73 -28v-404q61 -2 101 -46t40 -105q0 -63 -45 -108.5t-109 -45.5q-63 0 -108 45t-45 109zM147 717q0 -53 37 -90t90 -37q51 0 88 38t37 89t-36.5 88t-88.5 37q-53 0 -90 -36t-37 -89z" />
<glyph unicode="3" d="M121 717q0 61 39 105t100 48v1115q0 12 16 12h367q12 0 12 -15q0 -10 -18.5 -16t-69.5 -24l-92 -35q-23 -8 -113 -41q-31 -12 -63 -25l-10 -4v-117q41 14 178 68q47 18 141 55q31 12 35 12q12 0 12 -14q0 -10 -15 -15t-278 -108q-25 -6 -73 -28v-109q41 14 178 68 q47 18 141 55q31 12 35 12q12 0 12 -14q0 -8 -88 -43q-57 -23 -205 -80q-25 -6 -73 -29v-108q41 14 178 67q47 18 141 56q31 12 35 12q12 0 12 -14q0 -8 -88 -43q-57 -23 -205 -80q-25 -6 -73 -29v-108q41 14 178 67q47 18 141 55q31 12 35 13q12 -1 12 -15q0 -8 -88 -43 q-57 -23 -205 -80q-25 -6 -73 -28v-109l14 4q25 10 107 41q14 6 30 11l15 6q14 0 14 -15q0 -10 -88 -41q-27 -8 -92 -36v-263q61 -4 100 -48t39 -105q0 -63 -45 -108.5t-109 -45.5q-63 0 -108 45t-45 109zM150 717q0 -51 36.5 -88t87.5 -37t89 37t38 88q0 53 -36.5 89 t-90.5 36q-51 0 -87.5 -37t-36.5 -88z" />
<glyph unicode="4" horiz-adv-x="518" d="M121 707q0 59 39 102t98 45v1122q0 14 16 15h355q12 0 12 -15q0 -6 -86 -39l-90 -34q-29 -10 -109 -41q-23 -6 -71 -27v-31h344q12 0 12 -12q0 -10 -86 -41l-90 -33q-29 -12 -109 -41q-12 -4 -71 -26v-797q59 -2 97 -45t38 -102q0 -61 -44 -105.5t-106 -44.5 q-61 0 -105 44t-44 106zM150 707q0 -51 34.5 -87t85.5 -36t87 36t36 87t-35.5 85.5t-87.5 34.5q-49 0 -84.5 -35.5t-35.5 -84.5z" />
<glyph unicode="5" horiz-adv-x="518" d="M115 705q0 59 37.5 102t97.5 47v1120q0 16 16 17h355q12 0 12 -15q0 -10 -15.5 -15t-70.5 -26l-90 -32q-8 -2 -109 -41q-23 -6 -72 -27v-31h345q12 0 12 -14q0 -10 -86 -41l-90 -33q-8 -2 -109 -41q-23 -6 -72 -26v-107q14 6 132 51q14 6 30 13q14 0 15 -15q0 -8 -86 -41 q-35 -12 -91 -37v-659q59 -4 97.5 -47t38.5 -102q0 -61 -44 -104.5t-106 -43.5q-61 0 -104 43t-43 105zM141 705q0 -49 36 -85t85 -36q51 0 87 35t36 86t-36 86.5t-87 35.5t-86 -35.5t-35 -86.5z" />
<glyph unicode="6" horiz-adv-x="518" d="M121 715q0 59 38 102t97 45v1123q0 14 16 14h355q12 0 12 -12q0 -8 -86 -41l-90 -35q-29 -10 -109 -41q-23 -6 -71 -25v-33h344q12 0 12 -12q0 -10 -86 -41l-90 -33q-29 -12 -109 -40q-12 -4 -71 -27v-107q39 14 172 66l137 53q31 12 35 12q12 0 12 -12q0 -8 -86 -43 q-92 -37 -199 -78q-23 -6 -71 -26v-662q59 -2 97 -45t38 -102q0 -63 -43 -106.5t-107 -43.5q-61 0 -104 44t-43 106zM147 715q0 -51 35 -87t86 -36t87 36t36 87t-36 86t-87 35q-49 0 -85 -36t-36 -85z" />
<glyph unicode="7" horiz-adv-x="518" d="M113 715q0 59 38.5 102t98.5 45v1123q0 14 16 14h355q10 0 10 -12q0 -10 -84 -41l-90 -33q-29 -12 -109 -41q-12 -4 -72 -27v-30h345q10 0 10 -15q0 -10 -15 -14q-25 -10 -69 -27l-90 -33q-8 -2 -109 -40q-23 -6 -72 -27v-107q2 0 173 68q39 14 137 51l32 12q13 0 13 -12 q0 -10 -15 -14q-76 -35 -268 -105l-6 -2q-33 -12 -66 -26v-107q37 14 132 51q14 6 30 13q12 0 13 -15q0 -8 -84 -41q-41 -16 -91 -36v-527q59 -2 97.5 -45t38.5 -102q0 -61 -44 -105.5t-106 -44.5q-61 0 -105 44t-44 106zM141 715q0 -51 35 -86t86 -35t87 35t36 86t-36 87 t-87 36t-86 -36t-35 -87z" />
<glyph unicode="8" horiz-adv-x="518" d="M117 711q0 59 38 102t97 45v1122q0 14 16 15h355q12 0 12 -15q0 -10 -86 -41l-90 -32q-8 -2 -109 -41q-23 -6 -71 -27v-31h344q12 0 12 -12q0 -8 -86 -41l-90 -35q-29 -10 -109 -41q-23 -6 -71 -24v-107q39 14 172 66l137 53q31 12 35 12q12 0 12 -14q0 -6 -86 -41 q-92 -37 -199 -78q-23 -6 -71 -26v-107q39 14 172 66l137 53q31 12 35 12q12 0 12 -14q0 -6 -86 -41q-92 -37 -199 -78q-23 -6 -71 -27v-526q59 -2 97 -45t38 -102q0 -63 -43 -106.5t-107 -43.5q-63 0 -105 43t-42 107zM143 711q0 -51 35 -87t86 -36t87 36t36 87t-36 85.5 t-87 34.5q-49 0 -85 -35.5t-36 -84.5z" />
<glyph unicode="9" horiz-adv-x="518" d="M106 709q0 59 39 102t99 47v1122q0 14 16 15h354q10 0 11 -15q0 -10 -17.5 -16t-66.5 -25l-90 -32q-29 -10 -111 -41q-18 -6 -72 -27v-31h346q10 0 11 -14q0 -10 -84 -41l-90 -33q-29 -10 -111 -41q-18 -6 -72 -26v-107q14 4 174 68q37 14 138 53q29 12 32 12 q12 0 13 -14q0 -8 -84 -41q-55 -23 -201 -78q-23 -6 -72 -28v-105q39 10 174 66q31 12 138 53l32 12q13 0 13 -14q0 -8 -84 -42t-201 -77q-23 -6 -72 -29v-104q39 12 133 49q31 12 37 12t6 -12q0 -14 -38 -29q-23 -6 -46 -14q-29 -8 -92 -37v-389q59 -4 98.5 -47t39.5 -102 q0 -61 -44.5 -104.5t-105.5 -43.5t-105.5 43t-44.5 105zM135 709q0 -51 35 -86t86 -35t87 35t36 86t-36 86.5t-87 35.5t-86 -35.5t-35 -86.5z" />
<glyph unicode=":" horiz-adv-x="518" d="M113 707q0 59 38.5 102t98.5 45v1122q0 14 16 15h355q10 0 10 -15q0 -10 -84 -41l-90 -32q-29 -10 -111 -41q-18 -6 -70 -27v-31h345q10 0 10 -12q0 -8 -84 -41l-90 -35q-55 -23 -111 -41q-18 -6 -70 -24v-107q53 18 173 66q66 27 137 53l32 12q12 0 13 -14q0 -8 -84 -42 t-201 -77q-23 -6 -70 -26v-107q53 18 173 66q66 27 137 53l32 12q12 0 13 -14q0 -8 -84 -42t-201 -77q-23 -6 -70 -27v-106q53 18 173 65q66 27 137 54l32 12q13 0 13 -12q0 -10 -84 -44t-201 -77q-23 -6 -70 -27v-391q59 -2 97.5 -45t38.5 -102q0 -63 -43 -106.5 t-107 -43.5q-63 0 -106 43t-43 107zM141 707q0 -51 35 -87t86 -36t87 36t36 87t-36 85.5t-87 34.5t-86 -34.5t-35 -85.5z" />
<glyph unicode=";" horiz-adv-x="518" d="M109 702q0 59 37.5 102.5t97.5 45.5v1122q0 14 16 15h354q12 0 13 -15q0 -8 -84 -39l-201 -75q-23 -6 -72 -27v-31h344q12 0 13 -12q0 -10 -84 -41l-92 -35q-20 -8 -109 -39q-12 -4 -72 -26v-107q39 14 172 66q39 14 140 53q31 12 32 12q12 0 13 -14q0 -8 -84 -41 q-76 -31 -201 -78q-23 -6 -72 -27v-106q39 14 172 65q39 14 140 54q31 12 32 12q12 0 13 -12q0 -10 -84 -43q-76 -31 -201 -78q-23 -6 -72 -27v-106q39 14 172 65q39 14 140 54q31 12 32 12q13 0 13 -12q0 -10 -15 -15q-37 -16 -270 -106q-23 -6 -72 -27v-106h2l13 4 q27 12 104 39q8 4 29 12q14 4 16 4q12 0 12 -12q0 -10 -86 -41q-2 0 -90 -35v-256q59 -2 97.5 -45t38.5 -103q0 -61 -43.5 -105t-104.5 -44t-105 44t-44 105zM135 702q0 -51 36 -86.5t87 -35.5t86 35.5t35 86.5q0 49 -36 85t-85 36q-51 0 -87 -34.5t-36 -86.5z" />
<glyph unicode="&#x3c;" horiz-adv-x="518" d="M115 702q0 59 37.5 102.5t97.5 45.5v1122q0 14 16 15h355q12 0 12 -15q0 -6 -86 -39l-90 -35q-29 -10 -109 -40q-23 -6 -72 -27v-31h345q12 0 12 -12q0 -8 -86 -41l-90 -35q-14 -6 -109 -39q-12 -4 -72 -26v-107q39 14 173 66l137 53q31 12 35 12q12 0 12 -14 q0 -6 -86 -41q-92 -37 -199 -78q-23 -6 -72 -27v-106q39 14 173 65l137 54q31 12 35 12q12 0 12 -12q0 -8 -86 -43q-92 -37 -199 -78q-23 -6 -72 -27v-106q39 14 173 65l137 54q31 12 35 12q12 0 12 -12q0 -10 -15 -15q-78 -33 -270 -106q-23 -6 -72 -27v-106q39 14 173 65 l137 53q31 12 35 13q12 -1 12 -13q0 -10 -15 -14q-78 -33 -270 -106q-23 -6 -72 -27v-256q59 -2 97.5 -45t38.5 -103q0 -61 -44 -105t-106 -44q-61 0 -104 44t-43 105zM141 702q0 -51 35 -86.5t86 -35.5t87 35.5t36 86.5t-36 86t-87 35q-49 0 -85 -35.5t-36 -85.5z" />
<glyph unicode="=" horiz-adv-x="518" d="M106 702q0 59 38 102.5t98 45.5v1122q0 14 16 15h356q10 0 11 -15q0 -8 -84 -39l-201 -75q-23 -6 -72 -27v-31h346q10 0 11 -12q0 -10 -84 -41l-92 -35q-20 -8 -109 -39q-12 -4 -72 -26v-107q39 14 172 66q39 14 140 53q31 12 32 12q12 0 13 -14q0 -8 -84 -41 q-76 -31 -201 -78q-23 -6 -72 -27v-106q39 14 172 65q39 14 140 54q31 12 32 12q12 0 13 -12q0 -10 -84 -43q-76 -31 -201 -78q-23 -6 -72 -27v-106q39 14 172 65q39 14 140 54q31 12 32 12q12 0 13 -12q0 -10 -15 -15q-37 -16 -270 -106q-23 -6 -72 -27v-106q39 14 172 65 q39 14 140 53q31 12 32 13q13 -1 13 -13q0 -10 -15 -14q-37 -16 -270 -106q-23 -6 -72 -27v-107h2l13 5q27 12 104 40q8 2 29 11q14 4 16 4q12 0 12 -12q0 -10 -86 -41q-2 0 -90 -35v-121q59 -2 97 -45t38 -103q0 -61 -43 -105t-104 -44t-105.5 44t-44.5 105zM133 702 q0 -51 36 -86.5t87 -35.5t86 35.5t35 86.5q0 49 -36 85t-85 36q-51 0 -87 -34.5t-36 -86.5z" />
<glyph unicode="&#x3e;" horiz-adv-x="1054" d="M84 537l440 442l443 -442l-441 -441zM156 537l166 -168l167 168l-167 168zM358 334l168 -168l166 168l-168 166zM358 739l168 -166l166 166l-168 168zM561 537l168 -168l166 168l-166 168zM752 885v364h178q106 0 106 -98q0 -55 -53 -88q43 -18 45 -64q0 -29 2 -59 q4 -39 21 -49v-6h-62q-2 2 -8 94q-2 14 -14 47q-14 14 -45 14h-121v-155h-49zM803 1083h119q63 1 63 64q0 59 -57 59h-125v-123z" />
<glyph unicode="?" horiz-adv-x="479" d="M20 674q0 55 35 95t90 44v1004q0 8 12.5 10t12.5 8v-4q35 14 125 49q16 6 27 8q12 0 12 -12q0 -8 -80 -39q-23 -8 -84 -33v-991q55 -4 91 -44t36 -95q0 -57 -41 -97t-98 -40t-97.5 39.5t-40.5 97.5zM45 674q0 -45 34 -79t79 -34q47 0 80.5 33t33.5 80h-112v114 q-49 0 -82 -33.5t-33 -80.5z" />
<glyph unicode="@" horiz-adv-x="487" d="M111 707q0 55 35.5 96t91.5 43v1018q0 12 12 12q2 0 4 -2h2q4 2 27.5 10t138.5 53l129 52q20 8 35 12q12 0 12 -12q0 -8 -80 -41q-72 -29 -188 -72q-18 -6 -68 -27v-1003q55 -2 92 -43t37 -96q0 -57 -42 -98.5t-99 -41.5t-98 41t-41 99zM135 707q0 -47 34 -81t81 -34 t81 34t34 81h-115v114q-47 0 -81 -33.5t-34 -80.5z" />
<glyph unicode="A" horiz-adv-x="487" d="M115 698q0 55 36.5 96.5t92.5 43.5v1017q0 12 12 13h2l2 -2q4 2 29 12q41 14 137 51l131 51q31 12 35 13q10 -1 10 -13q0 -8 -12 -14q-84 -33 -254 -98q-23 -6 -68 -27v-100q51 20 125 49l27 10q12 0 12 -12q0 -16 -80 -41q-27 -8 -84 -33v-876q55 -2 91 -43t36 -97 q0 -57 -41 -98t-98 -41q-59 0 -100 40t-41 99zM141 698q0 -49 33 -81.5t82 -32.5q47 0 81 33.5t34 80.5h-115v115q-49 0 -82 -32.5t-33 -82.5z" />
<glyph unicode="B" horiz-adv-x="487" d="M117 700q0 55 35.5 96.5t91.5 43.5v1018q0 10 12 10h6q2 2 29 10q88 35 266 102l35 13q12 0 12 -13q0 -8 -14 -12q-31 -16 -254 -100q-18 -6 -68 -25v-100q25 8 164 63q27 10 129 49q25 8 31 11q12 -1 12 -13q0 -8 -14 -12q-31 -16 -254 -100q-18 -6 -68 -25v-876 q55 -2 92 -43t37 -97q0 -59 -41 -100t-100 -41t-99 41t-40 100zM141 700q0 -47 34 -80.5t81 -33.5t81 33.5t34 80.5h-115v115q-47 0 -81 -33.5t-34 -81.5z" />
<glyph unicode="C" horiz-adv-x="487" d="M117 692q0 55 35.5 96t91.5 43v1018q0 12 14 13h2l2 -2q4 2 29 12q41 14 137 51l131 51q31 12 35 13q10 0 10 -13q0 -8 -12 -14q-84 -33 -254 -98q-23 -6 -68 -27v-100q4 2 162 63q10 4 53 20.5t75 29t34 12.5q10 -1 10 -13q0 -8 -80 -41q-53 -20 -186 -71 q-23 -6 -68 -27v-100l123 49q25 10 29 10q12 0 12 -12q0 -8 -80 -39q-23 -8 -84 -35v-750q55 -2 91 -42.5t36 -96.5q0 -57 -41 -98t-98 -41q-59 0 -100 40t-41 99zM143 692q0 -49 33 -81.5t82 -32.5q47 0 81 33.5t34 80.5h-115v115q-49 0 -82 -33t-33 -82z" />
<glyph unicode="D" horiz-adv-x="487" d="M115 698q0 55 35.5 96.5t91.5 43.5v1020q0 10 12 10h4l2 -2q4 4 29 12q90 35 268 102q20 8 33 13q12 0 12 -13q0 -8 -12 -14q-84 -33 -256 -98q-18 -6 -68 -27v-98q29 8 164 61q10 4 53 20.5t76 28.5q14 6 31 13q12 0 12 -13q0 -8 -12 -14q-84 -33 -256 -98 q-18 -6 -68 -27v-98q29 8 164 61q10 4 53 20.5t76 28.5q14 6 31 13q12 -1 12 -13q0 -8 -12 -14q-84 -33 -256 -98q-18 -6 -68 -27v-749q57 -2 93 -42t36 -98q0 -59 -41 -99t-100 -40q-57 0 -98 41t-41 98zM139 698q0 -47 34 -80.5t81 -33.5q49 0 82 32.5t33 81.5h-113v115 q-51 0 -84 -32.5t-33 -82.5z" />
<glyph unicode="E" horiz-adv-x="487" d="M115 692q0 55 36.5 96t92.5 43v1018q0 12 12 13l2 -2h2q4 2 29 10q35 12 137 53l131 51q31 12 35 13q10 0 10 -13q0 -8 -80 -41q-53 -20 -186 -71q-23 -6 -68 -27v-100q4 2 162 63q10 4 53 20.5t75 29t34 12.5q10 0 10 -13q0 -8 -80 -41q-53 -20 -186 -71q-23 -6 -68 -27 v-100q4 2 162 63q10 4 53 20.5t75 29t34 12.5q10 -1 10 -15q0 -8 -12 -12q-39 -18 -254 -98q-31 -10 -68 -27v-100l123 49q25 10 29 10q12 0 12 -12q0 -10 -80 -41q-23 -8 -84 -33v-623q55 -2 91 -42.5t36 -96.5q0 -57 -41 -98t-98 -41q-59 0 -100 40t-41 99zM141 692 q0 -49 33 -81.5t82 -32.5q47 0 81 33.5t34 80.5h-115v115q-49 0 -82 -33t-33 -82z" />
<glyph unicode="F" horiz-adv-x="489" d="M123 698q0 55 37 96.5t92 43.5v1024q0 10 12 10h6q51 18 166 63q45 18 131 52q20 8 35 12q12 0 12 -12q0 -8 -79 -41q-8 -4 -191 -72q-18 -6 -68 -27v-100q25 8 164 63l131 50q27 10 31 10q12 0 12 -12q0 -8 -14 -13q-55 -25 -256 -100q-18 -6 -68 -27v-100q23 8 164 63 l131 52q27 10 31 10q12 0 12 -12q0 -8 -79 -41q-68 -27 -191 -72q-18 -6 -68 -27v-100q25 8 164 63q37 12 131 50l31 12q12 0 12 -12q0 -10 -14 -15q-55 -25 -256 -100q-18 -6 -68 -25v-626q55 -2 92.5 -43t37.5 -97q0 -82 -64 -118q-27 -14 -33 -15h-90q-39 0 -74 56 q-23 35 -22 77zM150 698q0 -49 32.5 -82.5t81.5 -33.5t83 33.5t34 82.5h-117v115q-47 0 -80.5 -34t-33.5 -81z" />
<glyph unicode="G" horiz-adv-x="487" d="M115 698q0 57 35.5 97.5t93.5 42.5v1020q0 10 12 10h2q2 0 4 -2q4 4 27 12q41 14 137 51l131 51q20 8 35 13q10 0 10 -13q0 -8 -12 -14q-84 -33 -254 -98q-23 -6 -68 -27v-98q27 8 162 61q10 4 53 20.5t75 29t34 12.5q10 0 10 -13q0 -8 -12 -14q-84 -33 -254 -98 q-23 -6 -68 -27v-100q4 2 162 63q10 4 53 20.5t75 29t34 12.5q10 0 10 -13q0 -8 -12 -14q-84 -33 -254 -98q-23 -6 -68 -27v-100q4 2 162 63q10 4 53 20.5t75 29t34 12.5q10 -1 10 -13q0 -8 -80 -40q-53 -20 -186 -72q-23 -6 -68 -27v-100l123 49q27 10 31 10q12 0 12 -12 q0 -8 -82 -39q-23 -8 -84 -35v-495q55 -2 91 -43t36 -97q0 -57 -41 -98t-98 -41q-59 0 -100 40t-41 99zM141 698q0 -47 34 -80.5t81 -33.5t81 33.5t34 80.5h-117v115q-47 0 -80 -32.5t-33 -82.5z" />
<glyph unicode="H" d="M115 707q0 61 40 105t101 48v1114q0 12 16 13h365q12 -1 12 -13q0 -10 -88 -43l-92 -35q-31 -10 -113 -41q-25 -8 -73 -28v-967q61 -4 100 -48t39 -105q0 -63 -45 -108.5t-109 -45.5q-63 0 -108 45t-45 109zM143 707q0 -51 37 -88t88 -37q53 0 90 37t37 90h-127v125 q-53 0 -89 -37t-36 -90z" />
<glyph unicode="I" d="M123 705q0 61 39 105t100 48v1114q0 12 17 13h366q12 -1 12 -13q0 -10 -88 -43l-92 -35q-23 -8 -112 -41q-35 -12 -66 -24l-10 -4v-117q12 4 137 53q23 8 31 11q14 0 14 -13q0 -10 -88 -45q-29 -8 -94 -37v-819q61 -4 101 -48t40 -105q0 -63 -45 -108.5t-109 -45.5 q-63 0 -108 45t-45 109zM152 705q0 -53 35.5 -89t88.5 -36t89 37t36 90h-127v124q-51 0 -86.5 -36.5t-35.5 -89.5z" />
<glyph unicode="J" d="M115 713q0 59 40 104t99 47v1116q0 12 18 13h365q12 0 12 -15q0 -12 -88 -43l-92 -32q-31 -12 -113 -43q-20 -6 -73 -27v-119q2 0 178 70q39 14 141 53q31 12 35 12q12 0 12 -12t-39 -27q-25 -8 -49 -16q-57 -23 -205 -80q-20 -8 -73 -28v-822q59 -2 99 -47t40 -104 q0 -63 -45 -108.5t-109 -45.5q-63 0 -108 45t-45 109zM143 713q0 -53 36 -90t89 -37t90 37t37 90h-127v125q-51 0 -88 -37t-37 -88z" />
<glyph unicode="K" d="M115 713q0 61 39 105t100 46v1116q0 12 16 13h367q12 0 12 -15q0 -10 -18.5 -16t-69.5 -25l-92 -34q-31 -10 -113 -43q-25 -6 -73 -27v-117q33 10 178 68q39 14 141 55q31 12 35 12q12 0 12 -14q0 -10 -14 -14q-127 -53 -279 -109q-20 -8 -73 -28v-109q74 27 135 51 q31 12 33 12q12 0 12 -14q0 -8 -88 -43q-29 -8 -92 -37v-682q61 -2 100 -46t39 -105q0 -63 -45 -108.5t-109 -45.5q-63 0 -108 45t-45 109zM143 713q0 -53 36 -90t89 -37q51 0 89 38t38 89h-129v125q-49 0 -86 -37t-37 -88z" />
<glyph unicode="L" d="M115 707q0 61 40 106t99 47v1114q0 12 16 13h367q12 0 12 -13q0 -10 -88 -43l-92 -35q-23 -8 -113 -41q-20 -6 -73 -26v-119q41 16 178 70q39 14 141 53q31 12 35 12q12 0 12 -12q0 -10 -88 -45q-57 -23 -205 -80q-25 -6 -73 -27v-110q41 16 178 69q39 14 141 54 q31 12 35 12q12 0 12 -12q0 -10 -88 -45q-27 -10 -205 -80q-25 -6 -73 -27v-682q59 -2 99 -47t40 -106q0 -63 -45 -108.5t-109 -45.5q-63 0 -108 45t-45 109zM143 707q0 -51 37 -88t88 -37q53 0 90 37t37 90h-127v125q-53 0 -89 -37t-36 -90z" />
<glyph unicode="M" d="M117 713q0 61 39 105t100 48v1114q0 12 16 13h367q12 0 12 -13q0 -10 -88 -43l-92 -34q-23 -8 -113 -41q-20 -6 -73 -27v-119q41 16 178 70q39 14 141 53q31 12 35 12q12 0 12 -14q0 -8 -88 -43q-57 -23 -205 -80q-25 -6 -73 -28v-109q41 16 178 70q39 14 141 53 q31 12 35 12q12 0 12 -14q0 -8 -88 -43q-57 -23 -205 -80q-25 -6 -73 -29v-108q10 4 135 53q23 8 31 10q14 0 14 -12q0 -10 -88 -43q-33 -12 -92 -37v-543q59 -2 99 -47t40 -106q0 -63 -45 -108.5t-109 -45.5q-63 0 -108 45t-45 109zM145 713q0 -51 37 -88t88 -37 q53 0 90 37t37 90h-127v125q-53 0 -89 -37t-36 -90z" />
<glyph unicode="N" d="M113 713q0 61 40 105t101 48v1114q0 12 16 13h367q10 0 10 -13q0 -10 -86 -43l-94 -34q-31 -10 -113 -41q-10 -4 -73 -27v-119q2 0 178 70q39 14 141 53q31 12 35 12q12 0 12 -14q0 -10 -86 -43l-207 -80q-23 -6 -73 -28v-109q2 0 178 70q39 14 141 53q31 12 35 12 q12 0 12 -14q0 -10 -86 -43l-207 -80q-23 -6 -73 -27v-110q2 0 178 69q39 14 141 54q31 12 35 12q12 0 12 -12t-86 -45l-207 -80q-23 -6 -73 -27v-543q59 -2 99 -47t40 -106q0 -63 -45 -108.5t-109 -45.5q-63 0 -108 45t-45 109zM141 713q0 -51 37 -88t88 -37q53 0 90 37 t37 90h-127v125q-53 0 -89 -37t-36 -90z" />
<glyph unicode="O" d="M121 707q0 61 40 106t99 47v1114q0 12 16 13h367q12 0 12 -13q0 -10 -88 -43l-94 -35q-43 -16 -113 -41l-73 -26v-119q2 0 178 70q39 14 141 53q29 10 35 12q14 0 14 -12t-88 -45q-45 -16 -207 -80q-23 -6 -73 -27v-110q2 0 178 69q39 14 141 54q29 10 35 12q14 0 14 -12 t-88 -45q-45 -16 -207 -80q-23 -6 -73 -27v-110q2 0 178 69q39 14 141 53q29 10 35 13q14 -1 14 -13t-88 -45q-45 -16 -207 -79q-23 -6 -73 -27v-111q39 16 135 54q23 8 33 10q14 0 14 -13q0 -10 -88 -43q-47 -16 -94 -36v-404q61 -2 101 -47t40 -106q0 -63 -45 -108.5 t-109 -45.5q-63 0 -108 45t-45 109zM147 707q0 -53 37 -89t90 -36t89 37t36 90h-127v125q-51 0 -88 -37t-37 -90z" />
<glyph unicode="P" d="M115 713q0 61 39 105t100 46v1116q0 12 16 13h367q12 0 12 -15q0 -10 -18 -14q-10 -4 -70 -27l-94 -34q-29 -12 -113 -43q-20 -6 -73 -27v-117q33 8 178 68q39 16 141 55q29 10 35 12q14 0 14 -14q0 -10 -16 -14q-59 -27 -279 -109q-29 -10 -73 -28v-109q33 8 178 68 q39 16 141 55q29 10 35 12q14 0 14 -14q0 -10 -16 -15q-59 -27 -279 -108q-29 -10 -73 -29v-108q37 12 178 67l141 56q29 10 35 12q14 0 14 -14q0 -10 -16 -15q-57 -27 -279 -108q-23 -6 -73 -29v-109q37 12 178 68l141 55q29 10 35 13q14 -1 14 -15q0 -10 -16 -14 q-57 -27 -279 -109q-23 -6 -73 -28v-404q61 -2 101 -46t40 -105q0 -63 -45 -108.5t-109 -45.5q-63 0 -108 45t-45 109zM141 713q0 -53 37 -90t90 -37q51 0 88 38t37 89h-127v125q-51 0 -88 -36t-37 -89z" />
<glyph unicode="Q" d="M115 713q0 61 39 105t100 48v1114q0 12 16 13h367q12 0 12 -15q0 -10 -18.5 -16t-69.5 -25l-92 -34q-23 -8 -113 -41q-31 -12 -63 -25l-10 -4v-117q41 14 178 68q47 18 141 55q31 12 35 12q12 0 12 -14q0 -10 -15.5 -15t-277.5 -108q-25 -6 -73 -28v-109q41 14 178 68 q47 18 141 55q31 12 35 12q12 0 12 -14q0 -8 -88 -43q-57 -23 -205 -80q-25 -6 -73 -29v-108q41 14 178 67q47 18 141 56q31 12 35 12q12 0 12 -14q0 -8 -88 -43q-57 -23 -205 -80q-25 -6 -73 -29v-109q41 14 178 68q47 18 141 55q31 12 35 13q12 -1 12 -15q0 -8 -88 -43 q-57 -23 -205 -80q-25 -6 -73 -28v-109l14 4q25 10 106 41q14 6 31 10l15 7q14 0 14 -15q0 -10 -88 -41q-27 -8 -92 -37v-262q61 -4 100 -48t39 -105q0 -63 -45 -108.5t-109 -45.5q-63 0 -108 45t-45 109zM143 713q0 -51 37 -88t88 -37t89 37t38 88h-127v125q-51 0 -88 -37 t-37 -88z" />
<glyph unicode="R" horiz-adv-x="518" d="M115 702q0 59 39 102.5t98 45.5v1122q0 14 16 15h355q12 0 12 -15q0 -6 -86 -39l-90 -35q-29 -10 -109 -40q-23 -6 -71 -27v-31h344q12 0 12 -12q0 -10 -86 -41l-90 -33q-29 -12 -109 -41q-12 -4 -71 -26v-797q59 -2 97 -45t38 -103q0 -61 -44 -105t-106 -44 q-61 0 -105 44t-44 105zM143 702q0 -51 35 -86.5t86 -35.5t87 35.5t36 86.5h-123v121q-49 0 -85 -35.5t-36 -85.5z" />
<glyph unicode="S" horiz-adv-x="518" d="M109 700q0 59 37.5 102.5t97.5 47.5v1120q0 16 16 17h354q12 0 13 -15q0 -10 -15.5 -15t-70.5 -26l-90 -33q-8 -2 -109 -40q-23 -6 -72 -27v-31h344q13 0 13 -14q0 -10 -86 -41l-90 -33q-8 -2 -109 -41q-23 -6 -72 -26v-107q14 6 131 51q14 6 31 13q14 0 14 -15 q0 -8 -86 -41q-35 -12 -90 -37v-659q59 -4 97.5 -47t38.5 -103q0 -61 -44.5 -104t-105.5 -43t-104 43t-43 104zM135 700q0 -49 36 -84.5t85 -35.5q51 0 87 34.5t36 85.5h-121v123q-53 0 -88 -35.5t-35 -87.5z" />
<glyph unicode="T" horiz-adv-x="518" d="M123 711q0 59 38 102t97 45v1122q0 14 16 15h355q12 0 12 -13q0 -8 -86 -40l-90 -35q-29 -10 -109 -41q-23 -6 -71 -25v-33h344q12 0 12 -12q0 -10 -86 -41l-90 -33q-29 -12 -109 -41q-12 -4 -71 -26v-107q39 14 172 66l137 53q31 12 35 12q12 0 12 -12q0 -8 -86 -43 q-92 -37 -199 -78q-23 -6 -71 -26v-662q59 -2 97 -45t38 -102q0 -63 -43 -106.5t-107 -43.5q-61 0 -104 44t-43 106zM150 711q0 -51 34.5 -87t85.5 -36t87 36t36 87h-121v120q-51 0 -86.5 -35.5t-35.5 -84.5z" />
<glyph unicode="U" horiz-adv-x="518" d="M115 711q0 59 39 102t98 45v1122q0 14 16 15h355q10 0 10 -13q0 -10 -84 -40l-90 -33q-29 -12 -109 -41q-12 -4 -71 -27v-31h344q10 0 10 -14q0 -10 -15 -14q-25 -10 -69 -27l-90 -33q-8 -2 -109 -41q-23 -6 -71 -26v-107q2 0 172 68q39 14 137 51q16 6 33 12 q12 0 12 -12q0 -10 -15 -14q-76 -35 -268 -105l-6 -2q-33 -12 -65 -26v-107q37 14 131 51q14 6 30 13q12 0 13 -15q0 -8 -84 -41q-41 -16 -90 -37v-526q59 -2 97 -45t38 -102q0 -61 -44 -105.5t-106 -44.5q-61 0 -105 44t-44 106zM143 711q0 -51 35 -86t86 -35t87 35t36 86 h-123v123q-51 0 -86 -36t-35 -87z" />
<glyph unicode="V" horiz-adv-x="518" d="M119 707q0 59 38 102t97 45v1122q0 14 16 15h355q12 0 12 -15q0 -10 -86 -41l-90 -32q-8 -2 -109 -41q-23 -6 -71 -27v-31h344q12 0 12 -12q0 -8 -86 -41l-90 -35q-29 -10 -109 -41q-23 -6 -71 -24v-107q39 14 172 66l137 53q31 12 35 12q12 0 12 -14q0 -6 -86 -41 q-92 -37 -199 -78q-23 -6 -71 -26v-107q39 14 172 66l137 53q31 12 35 12q12 0 12 -14q0 -6 -86 -41q-92 -37 -199 -78q-23 -6 -71 -27v-526q59 -2 97 -45t38 -102q0 -63 -43 -106.5t-107 -43.5q-63 0 -105 43t-42 107zM145 707q0 -51 35 -87t86 -36t87 36t36 87h-121v120 q-51 0 -87 -35.5t-36 -84.5z" />
<glyph unicode="W" horiz-adv-x="518" d="M109 705q0 59 38.5 102t98.5 47v1122q0 14 16 15h354q10 0 11 -15q0 -10 -17.5 -16t-66.5 -25l-90 -32q-29 -10 -111 -41q-18 -6 -72 -27v-31h346q10 0 11 -14q0 -10 -84 -41l-90 -33q-29 -10 -111 -41q-18 -6 -72 -26v-107q14 4 174 68q37 14 138 53q29 12 32 12 q12 0 13 -14q0 -8 -84 -41q-55 -23 -201 -78q-23 -6 -72 -29v-104q39 10 174 66q31 12 138 53l32 12q13 0 13 -14q0 -8 -84 -42t-201 -77q-23 -6 -72 -29v-104q39 12 133 49q31 12 37 12t6 -12q0 -14 -38 -29q-23 -6 -46 -14q-29 -8 -92 -37v-389q59 -4 98.5 -47t39.5 -102 q0 -61 -44.5 -104.5t-105.5 -43.5t-105 43t-44 105zM137 705q0 -51 35 -86t86 -35t87 35t36 86h-123v122q-51 0 -86 -35.5t-35 -86.5z" />
<glyph unicode="X" horiz-adv-x="518" d="M115 702q0 59 39 102.5t98 45.5v1122q0 14 16 15h355q10 0 10 -15q0 -10 -84 -41l-90 -33q-29 -10 -111 -40q-18 -6 -69 -27v-31h344q10 0 10 -12q0 -8 -84 -41l-90 -35q-55 -23 -111 -41q-18 -6 -69 -24v-107q53 18 172 66q66 27 137 53q16 6 33 12q12 0 12 -14 q0 -8 -84 -42t-201 -77q-23 -6 -69 -27v-106q53 18 172 65q66 27 137 54q16 6 33 12q12 0 12 -14q0 -8 -84 -42t-201 -77q-23 -6 -69 -27v-106q53 18 172 65q66 27 137 54q16 6 33 12q12 0 12 -12q0 -10 -84 -44t-201 -77q-23 -6 -69 -27v-391q59 -2 97 -45t38 -103 q0 -63 -43 -106t-107 -43q-63 0 -106 43t-43 106zM143 702q0 -51 35 -86.5t86 -35.5t87 35.5t36 86.5h-125v121q-49 0 -84 -34.5t-35 -86.5z" />
<glyph unicode="Y" horiz-adv-x="518" d="M111 698q0 59 37.5 102.5t97.5 45.5v1122q0 14 16 14h354q12 0 13 -14q0 -8 -84 -39l-201 -76q-23 -6 -72 -26v-31h344q12 0 13 -12q0 -10 -84 -41l-92 -35q-20 -8 -109 -39q-12 -4 -72 -27v-106q39 14 172 66q39 14 140 53q31 12 32 12q12 0 13 -14q0 -8 -84 -41 q-76 -31 -201 -78q-23 -6 -72 -27v-106q39 14 172 65q39 14 140 54q31 12 32 12q12 0 13 -12q0 -10 -84 -43q-76 -31 -201 -78q-23 -6 -72 -27v-106q39 14 172 65q39 14 140 53q31 12 32 13q13 -1 13 -13q0 -10 -15 -14q-37 -16 -270 -106q-23 -6 -72 -27v-107h2l13 5 q27 12 104 39q8 4 29 12q14 4 16 4q12 0 13 -12q0 -10 -87 -41q-2 0 -90 -35v-256q59 -2 97.5 -45t38.5 -103q0 -61 -43 -105t-105 -44q-61 0 -105 44t-44 105zM137 698q0 -51 36 -87t87 -36t86 36t35 87h-123v121q-49 0 -85 -34.5t-36 -86.5z" />
<glyph unicode="Z" horiz-adv-x="518" d="M117 698q0 59 38 102.5t97 45.5v1122q0 14 16 14h355q12 0 12 -14q0 -6 -86 -39l-90 -35q-29 -10 -109 -41q-23 -6 -71 -26v-31h344q12 0 12 -12q0 -8 -86 -41l-90 -35q-14 -6 -109 -39q-12 -4 -71 -27v-106q39 14 172 66l137 53q31 12 35 12q12 0 12 -14q0 -6 -86 -41 q-92 -37 -199 -78q-23 -6 -71 -27v-106q39 14 172 65l137 54q31 12 35 12q12 0 12 -12q0 -8 -86 -43q-92 -37 -199 -78q-23 -6 -71 -27v-106q39 14 172 65l137 53q31 12 35 13q12 0 12 -13q0 -10 -14 -14q-78 -33 -271 -106q-23 -6 -71 -27v-107q39 14 172 66l137 53 q31 12 35 13q12 -1 12 -13q0 -10 -14 -14q-78 -33 -271 -107q-23 -6 -71 -26v-256q59 -2 97 -45t38 -103q0 -61 -44 -105t-106 -44q-61 0 -104 44t-43 105zM143 698q0 -51 35 -87t86 -36t87 36t36 87h-123v121q-49 0 -85 -35.5t-36 -85.5z" />
<glyph unicode="[" horiz-adv-x="518" d="M109 698q0 59 37.5 102.5t97.5 45.5v1122q0 14 16 14h356q10 0 11 -14q0 -8 -84 -39l-201 -76q-23 -6 -72 -26v-31h346q10 0 11 -12q0 -10 -84 -41l-92 -35q-20 -8 -109 -39q-12 -4 -72 -27v-106q39 14 172 66q39 14 140 53q31 12 32 12q12 0 13 -14q0 -8 -84 -41 q-76 -31 -201 -78q-23 -6 -72 -27v-106q39 14 172 65q39 14 140 54q31 12 32 12q12 0 13 -12q0 -10 -84 -43q-76 -31 -201 -78q-23 -6 -72 -27v-106q39 14 172 65q39 14 140 53q31 12 32 13q12 0 13 -13q0 -10 -15 -14q-37 -16 -270 -106q-23 -6 -72 -27v-107q39 14 172 66 q39 14 140 53q31 12 32 13q13 -1 13 -13q0 -10 -15 -14q-37 -16 -270 -107q-23 -6 -72 -26v-107h2l13 4q27 12 104 41q8 2 29 11q14 4 16 4q12 0 12 -13q0 -10 -86 -41q-2 0 -90 -34v-121q59 -2 97.5 -45t38.5 -103q0 -61 -43.5 -105t-104.5 -44t-105 44t-44 105zM135 698 q0 -51 36 -87t87 -36t86 36t35 87h-123v121q-49 0 -85 -34.5t-36 -86.5z" />
<glyph unicode="\" horiz-adv-x="1044" d="M0 885q0 51 50 98t102 47q41 0 73 -33l-30 -32q-31 20 -43 20q-37 0 -73 -30.5t-36 -67.5q0 -55 49 -56q12 0 58 25q10 6 63 35q47 27 68 27q61 0 86 -52q14 -29 14 -39v-18l137 139l440 -442l-438 -443l-442 441l145 149h-12q-18 0 -80 39l33 31q41 -27 61 -27 q33 0 72 38t39 71q0 61 -55 61q-20 0 -56 -20q-23 -16 -75 -45q-45 -18 -58 -19q-41 0 -66.5 31t-25.5 72zM147 506l168 -168l168 168l-168 166zM352 301l168 -166l166 166l-168 168zM352 709l168 -168l166 168l-168 168zM555 504l166 -166l168 168l-168 166z" />
<glyph unicode="]" horiz-adv-x="479" d="M20 664q0 55 35 95t90 44v1003q0 8 12.5 10.5t12.5 8.5v-4q35 14 125 49q16 6 27 8q12 0 12 -12q0 -8 -80 -39q-23 -8 -84 -33v-991q55 -4 91 -44t36 -95q0 -57 -41 -97.5t-98 -40.5t-97.5 40t-40.5 98zM45 664q0 -45 34 -79t79 -34v227q-47 0 -80 -33.5t-33 -80.5z" />
<glyph unicode="^" horiz-adv-x="487" d="M115 696q0 55 35.5 96.5t91.5 43.5v1017q0 12 12 13q2 0 4 -2h2q4 2 27.5 10t138.5 53l129 51q20 8 35 13q12 -1 12 -13q0 -8 -80 -41q-72 -29 -188 -71q-18 -6 -68 -27v-1003q55 -2 92 -43t37 -97q0 -57 -42 -98t-99 -41t-98 41t-41 98zM139 696q0 -47 34 -80.5 t81 -33.5l-2 114v115q-45 0 -79 -34t-34 -81z" />
<glyph unicode="_" horiz-adv-x="487" d="M115 694q0 55 36.5 96t92.5 44v1017q0 12 12 13h2l2 -2q4 2 29 12q41 14 137 51l131 51q31 12 35 13q10 -1 10 -13q0 -8 -12 -14q-84 -33 -254 -98q-23 -6 -68 -27v-100q51 20 125 49l27 10q12 0 12 -12q0 -16 -80 -41q-27 -8 -84 -33v-876q55 -2 91 -43t36 -97 q0 -57 -41 -98t-98 -41q-59 0 -100 40t-41 99zM141 694q0 -49 33 -81.5t82 -32.5l-2 114v115q-47 0 -80 -33t-33 -82z" />
<glyph unicode="`" horiz-adv-x="487" d="M117 696q0 55 35.5 96.5t91.5 43.5v1017q0 10 12 11h6q2 2 29 10q88 35 266 102l35 13q12 0 12 -13q0 -8 -14 -12q-31 -16 -254 -100q-18 -6 -68 -25v-100q25 8 164 63q27 10 129 49q25 8 31 11q12 -1 12 -13q0 -8 -14 -12q-31 -16 -254 -100q-18 -6 -68 -25v-876 q55 -2 92 -43t37 -97q0 -59 -41 -100t-100 -41t-99 41t-40 100zM141 696q0 -47 34 -80.5t81 -33.5l2 114v115q-49 0 -83 -34t-34 -81z" />
<glyph unicode="a" horiz-adv-x="487" d="M117 694q0 55 35.5 96t91.5 44v1017q0 12 14 13h2l2 -2q4 2 29 12q41 14 137 51l131 51q31 12 35 13q10 0 10 -13q0 -8 -12 -14q-84 -33 -254 -98q-23 -6 -68 -27v-100q4 2 162 63q10 4 53 20.5t75 29t34 12.5q10 -1 10 -13q0 -8 -80 -41q-53 -20 -186 -71 q-23 -6 -68 -27v-100l123 49q25 10 29 10q12 0 12 -12q0 -8 -80 -39q-23 -8 -84 -35v-749q55 -2 91 -43t36 -97q0 -57 -41 -98t-98 -41q-59 0 -100 40t-41 99zM143 694q0 -49 33 -81.5t82 -32.5v229q-49 0 -82 -33t-33 -82z" />
<glyph unicode="b" horiz-adv-x="487" d="M115 700q0 55 35.5 96.5t91.5 43.5v1020q0 10 12 10h4l2 -2q4 4 29 12q90 35 268 102q20 8 33 13q12 0 12 -13q0 -8 -12 -14q-84 -33 -256 -98q-18 -6 -68 -27v-98q29 8 164 61q10 4 53 20.5t76 28.5q14 6 31 13q12 0 12 -13q0 -8 -12 -14q-84 -33 -256 -98 q-18 -6 -68 -27v-98q29 8 164 61q10 4 53 20.5t76 29.5q14 6 31 12q12 0 12 -12q0 -8 -12 -15q-84 -33 -256 -98q-18 -6 -68 -27v-749q57 -2 93 -42t36 -98q0 -59 -41 -99t-100 -40q-57 0 -98 41t-41 98zM139 700q0 -47 34 -80.5t81 -33.5v229q-49 0 -82 -32.5t-33 -82.5z " />
<glyph unicode="c" horiz-adv-x="487" d="M115 694q0 55 36.5 96t92.5 44v1017q0 12 12 13l2 -2h2q4 2 29 10q35 12 137 53l131 51q31 12 35 13q10 0 10 -13q0 -8 -80 -41q-53 -20 -186 -71q-23 -6 -68 -27v-100q4 2 162 63q10 4 53 20.5t75 29t34 12.5q10 0 10 -13q0 -8 -80 -41q-53 -20 -186 -71q-23 -6 -68 -27 v-100q4 2 162 63q10 4 53 20.5t75 29t34 12.5q10 -1 10 -15q0 -8 -12 -12q-39 -18 -254 -98q-31 -10 -68 -27v-100l123 49q25 10 29 10q12 0 12 -12q0 -10 -80 -41q-23 -8 -84 -33v-622q55 -2 91 -43t36 -97q0 -57 -41 -98t-98 -41q-59 0 -100 40t-41 99zM141 694 q0 -49 33 -81.5t82 -32.5l-2 114v115q-47 0 -80 -33t-33 -82z" />
<glyph unicode="d" horiz-adv-x="489" d="M115 707q0 55 36.5 96t92.5 43v1024q0 10 12 10h6q51 18 166 64q45 18 131 51q20 8 35 12q12 0 12 -12q0 -8 -80 -41q-8 -4 -190 -72q-18 -6 -68 -27v-100q25 8 164 64l131 49q27 10 31 10q12 0 12 -12q0 -8 -14 -13q-55 -25 -256 -100q-18 -6 -68 -27v-100q23 8 164 64 l131 51q27 10 31 10q12 0 12 -12q0 -8 -80 -41q-68 -27 -190 -72q-18 -6 -68 -27v-100q25 8 164 64q37 12 131 49q31 12 37 12t6 -12q0 -10 -14 -15q-55 -25 -256 -100q-18 -6 -68 -24v-627q55 -2 92 -43t37 -96q0 -82 -63 -119q-27 -14 -33 -15h-90q-39 0 -74 56 q-23 35 -22 78zM141 707q0 -49 33 -83t82 -34l2 117v114q-49 0 -83 -33.5t-34 -80.5z" />
<glyph unicode="e" horiz-adv-x="487" d="M115 694q0 57 35.5 97t93.5 43v1019q0 10 12 11h2q2 0 4 -2q4 4 27 12q41 14 137 51l131 51q20 8 35 13q10 0 10 -13q0 -8 -12 -14q-84 -33 -254 -98q-23 -6 -68 -27v-98q27 8 162 61q10 4 53 20.5t75 29t34 12.5q10 0 10 -13q0 -8 -12 -14q-84 -33 -254 -98 q-23 -6 -68 -27v-100q4 2 162 63q10 4 53 20.5t75 29t34 12.5q10 0 10 -13q0 -8 -12 -14q-84 -33 -254 -98q-23 -6 -68 -27v-100q4 2 162 63q10 4 53 20.5t75 29t34 12.5q10 -1 10 -13q0 -8 -80 -41q-53 -20 -186 -71q-23 -6 -68 -27v-100l123 49q27 10 31 10q12 0 12 -12 q0 -8 -82 -39q-23 -8 -84 -35v-495q55 -2 91 -43t36 -97q0 -57 -41 -98t-98 -41q-59 0 -100 40t-41 99zM141 694q0 -47 34 -80.5t81 -33.5v229q-49 0 -82 -33t-33 -82z" />
<glyph unicode="f" d="M115 702q0 61 40 105.5t101 48.5v1114q0 12 16 12h365q12 0 12 -12q0 -10 -88 -43l-92 -35q-31 -10 -113 -41q-25 -8 -73 -28v-967q61 -4 100 -48t39 -106q0 -63 -45 -108t-109 -45q-63 0 -108 45t-45 108zM143 702q0 -51 37 -87.5t88 -36.5l2 127v124q-55 0 -91 -36.5 t-36 -90.5z" />
<glyph unicode="g" d="M123 700q0 61 39 105.5t100 48.5v1114q0 12 17 12h366q12 0 12 -12q0 -10 -88 -43l-92 -35q-23 -8 -112 -41q-35 -12 -66 -24l-10 -4v-117q12 4 137 53q23 8 31 10q14 0 14 -12q0 -10 -88 -45q-29 -8 -94 -37v-819q61 -4 101 -48t40 -106q0 -63 -45 -108t-109 -45 q-63 0 -108 45t-45 108zM152 700q0 -53 35.5 -89t88.5 -36l-2 127v125q-51 0 -86.5 -36.5t-35.5 -90.5z" />
<glyph unicode="h" d="M115 709q0 59 40 104t99 47v1116q0 12 18 13h365q12 0 12 -15q0 -12 -88 -43l-92 -33q-31 -12 -113 -43q-20 -6 -73 -26v-119q2 0 178 70q39 14 141 53q31 12 35 12q12 0 12 -12t-39 -27q-25 -8 -49 -16q-57 -23 -205 -80q-20 -8 -73 -29v-821q59 -2 99 -47t40 -104 q0 -63 -45 -108.5t-109 -45.5q-63 0 -108 45t-45 109zM143 709q0 -53 36 -90t89 -37v252q-51 0 -88 -37t-37 -88z" />
<glyph unicode="i" d="M115 709q0 61 39 105t100 46v1116q0 12 16 13h367q12 0 12 -15q0 -10 -18.5 -16t-69.5 -25l-92 -35q-31 -10 -113 -43q-25 -6 -73 -26v-117q33 10 178 68q39 14 141 55q31 12 35 12q12 0 12 -14q0 -10 -14 -14q-127 -53 -279 -109q-20 -8 -73 -29v-108q74 27 135 51 q31 12 33 12q12 0 12 -14q0 -8 -88 -43q-29 -8 -92 -37v-682q61 -2 100 -46t39 -105q0 -63 -45 -108.5t-109 -45.5q-63 0 -108 45t-45 109zM143 709q0 -53 36 -90t89 -37l2 127v125q-53 0 -90 -37t-37 -88z" />
<glyph unicode="j" d="M115 702q0 61 40 106.5t99 47.5v1114q0 12 16 12h367q12 0 12 -12q0 -10 -88 -43l-92 -35q-23 -8 -113 -41q-20 -6 -73 -26v-119q41 16 178 70q39 14 141 53q31 12 35 12q12 0 12 -12q0 -10 -88 -45q-57 -23 -205 -80q-25 -6 -73 -27v-110q41 16 178 69q39 14 141 54 q31 12 35 12q12 0 12 -12q0 -10 -88 -45q-27 -10 -205 -80q-25 -6 -73 -27v-682q59 -2 99 -47t40 -107q0 -63 -45 -108t-109 -45q-63 0 -108 45t-45 108zM143 702q0 -51 37 -87.5t88 -36.5l-2 127v124q-51 0 -87 -36.5t-36 -90.5z" />
<glyph unicode="k" d="M117 709q0 61 39 105t100 48v1114q0 12 16 13h367q12 0 12 -13q0 -10 -88 -43l-92 -35q-23 -8 -113 -40q-20 -6 -73 -27v-119q41 16 178 70q39 14 141 53q31 12 35 12q12 0 12 -14q0 -8 -88 -43q-57 -23 -205 -80q-25 -6 -73 -29v-108q41 16 178 69q39 14 141 54 q31 12 35 12q12 0 12 -14q0 -8 -88 -43q-57 -23 -205 -80q-25 -6 -73 -29v-108q10 4 135 53q23 8 31 10q14 0 14 -12q0 -10 -88 -43q-33 -12 -92 -37v-543q59 -2 99 -47t40 -106q0 -63 -45 -108.5t-109 -45.5q-63 0 -108 45t-45 109zM145 709q0 -51 37 -88t88 -37v252 q-53 0 -89 -37t-36 -90z" />
<glyph unicode="l" d="M113 709q0 61 40 105t101 48v1114q0 12 16 13h367q10 0 10 -13q0 -10 -86 -43l-94 -35q-31 -10 -113 -40q-10 -4 -73 -27v-119q2 0 178 70q39 14 141 53q31 12 35 12q12 0 12 -14q0 -10 -86 -43l-207 -80q-23 -6 -73 -29v-108q2 0 178 69q39 14 141 54q31 12 35 12 q12 0 12 -14q0 -10 -86 -43l-207 -80q-23 -6 -73 -27v-110q2 0 178 69q39 14 141 53q31 12 35 13q12 -1 12 -13t-86 -45l-207 -79q-23 -6 -73 -27v-543q59 -2 99 -47t40 -106q0 -63 -45 -108.5t-109 -45.5q-63 0 -108 45t-45 109zM141 709q0 -51 37 -88t88 -37v252 q-53 0 -89 -37t-36 -90z" />
<glyph unicode="m" d="M121 702q0 61 40 106.5t99 47.5v1114q0 12 16 12h367q12 0 12 -12q0 -10 -88 -43l-94 -35q-43 -16 -113 -41l-73 -26v-119q2 0 178 70q39 14 141 53q29 10 35 12q14 0 14 -12t-88 -45q-45 -16 -207 -80q-23 -6 -73 -27v-110q2 0 178 69q39 14 141 54q29 10 35 12 q14 0 14 -12t-88 -45q-45 -16 -207 -80q-23 -6 -73 -27v-111q2 0 178 70q39 14 141 53q29 10 35 13q14 -1 14 -13t-88 -45q-45 -16 -207 -80q-23 -6 -73 -26v-111q39 16 135 53q23 8 33 11q14 0 14 -13q0 -10 -88 -43q-47 -16 -94 -36v-404q61 -2 101 -47t40 -107 q0 -63 -45 -108t-109 -45q-63 0 -108 45t-45 108zM147 702q0 -53 37 -88.5t90 -35.5v251q-53 0 -90 -36.5t-37 -90.5z" />
<glyph unicode="n" d="M115 709q0 61 39 105t100 46v1116q0 12 16 13h367q12 0 12 -15q0 -10 -18 -14q-10 -4 -70 -27l-94 -35q-29 -12 -113 -43q-20 -6 -73 -26v-117q33 8 178 68q39 16 141 55q29 10 35 12q14 0 14 -14q0 -10 -16 -14q-59 -27 -279 -109q-29 -10 -73 -29v-108q33 8 178 67 q39 16 141 56q29 10 35 12q14 0 14 -14q0 -10 -16 -15q-59 -27 -279 -108q-29 -10 -73 -29v-108q37 12 178 67l141 55q29 10 35 13q14 0 14 -15q0 -10 -16 -14q-57 -27 -279 -108q-23 -6 -73 -29v-109q37 12 178 68l141 55q29 10 35 13q14 -1 14 -15q0 -10 -16 -14 q-57 -27 -279 -109q-23 -6 -73 -28v-404q61 -2 101 -46t40 -105q0 -63 -45 -108.5t-109 -45.5q-63 0 -108 45t-45 109zM141 709q0 -53 37 -90t90 -37v252q-53 0 -90 -36t-37 -89z" />
<glyph unicode="o" d="M115 709q0 61 39 105t100 48v1114q0 12 16 13h367q12 0 12 -15q0 -10 -18.5 -16t-69.5 -25l-92 -35q-23 -8 -113 -40q-31 -12 -63 -25l-10 -4v-117q41 14 178 68q47 18 141 55q31 12 35 12q12 0 12 -14q0 -10 -15.5 -15.5t-277.5 -107.5q-25 -6 -73 -29v-108 q41 14 178 67q47 18 141 56q31 12 35 12q12 0 12 -14q0 -8 -88 -43q-57 -23 -205 -80q-25 -6 -73 -29v-108q41 14 178 67q47 18 141 55q31 12 35 13q12 0 12 -15q0 -8 -88 -43q-57 -23 -205 -79q-25 -6 -73 -29v-109q41 14 178 68q47 18 141 55q31 12 35 13q12 -1 12 -15 q0 -8 -88 -43q-57 -23 -205 -80q-25 -6 -73 -28v-109l14 4q25 10 106 41q14 6 31 10l15 7q14 0 14 -15q0 -10 -88 -41q-27 -8 -92 -37v-262q61 -4 100 -48t39 -105q0 -63 -45 -108.5t-109 -45.5q-63 0 -108 45t-45 109zM143 709q0 -51 37 -88t88 -37v250q-51 0 -88 -37 t-37 -88z" />
<glyph unicode="p" horiz-adv-x="518" d="M115 698q0 59 39 102.5t98 45.5v1122q0 14 16 14h355q12 0 12 -14q0 -6 -86 -39l-90 -35q-29 -10 -109 -41q-23 -6 -71 -26v-31h344q12 0 12 -12q0 -10 -86 -41l-90 -33q-29 -12 -109 -41q-12 -4 -71 -27v-796q59 -2 97 -45t38 -103q0 -61 -44 -105t-106 -44 q-61 0 -105 44t-44 105zM143 698q0 -51 35 -87t86 -36l2 123v121q-51 0 -87 -35.5t-36 -85.5z" />
<glyph unicode="q" horiz-adv-x="518" d="M109 696q0 59 37.5 102.5t97.5 47.5v1120q0 16 16 16h354q12 0 13 -14q0 -10 -15.5 -15t-70.5 -26l-90 -33q-8 -2 -109 -41q-23 -6 -72 -26v-31h344q13 0 13 -14q0 -10 -86 -41l-90 -33q-8 -2 -109 -41q-23 -6 -72 -27v-106q14 6 131 51q14 6 31 12q14 0 14 -14 q0 -8 -86 -41q-35 -12 -90 -37v-659q59 -4 97.5 -47t38.5 -103q0 -61 -44.5 -104t-105.5 -43t-104 43t-43 104zM135 696q0 -49 36 -85t85 -36l2 244q-53 0 -88 -35.5t-35 -87.5z" />
<glyph unicode="r" horiz-adv-x="518" d="M123 707q0 59 38 102t97 45v1122q0 14 16 15h355q12 0 12 -13q0 -8 -86 -41l-90 -34q-29 -10 -109 -41q-23 -6 -71 -25v-33h344q12 0 12 -12q0 -10 -86 -41l-90 -33q-29 -12 -109 -41q-12 -4 -71 -26v-107q39 14 172 66l137 53q31 12 35 12q12 0 12 -12q0 -8 -86 -43 q-92 -37 -199 -78q-23 -6 -71 -26v-662q59 -2 97 -45t38 -102q0 -63 -43 -106.5t-107 -43.5q-61 0 -104 44t-43 106zM150 707q0 -51 34.5 -87t85.5 -36v243q-49 0 -84.5 -35.5t-35.5 -84.5z" />
<glyph unicode="s" horiz-adv-x="518" d="M115 707q0 59 39 102t98 45v1122q0 14 16 15h355q10 0 10 -13q0 -10 -84 -41l-90 -32q-29 -12 -109 -41q-12 -4 -71 -27v-31h344q10 0 10 -14q0 -10 -15 -14q-25 -10 -69 -27l-90 -33q-8 -2 -109 -41q-23 -6 -71 -26v-107q2 0 172 68q39 14 137 51q16 6 33 12 q12 0 12 -12q0 -10 -15 -14q-76 -35 -268 -105l-6 -2q-33 -12 -65 -26v-107q37 14 131 51q14 6 30 13q12 0 13 -15q0 -8 -84 -41q-41 -16 -90 -37v-526q59 -2 97 -45t38 -102q0 -61 -44 -105.5t-106 -44.5q-61 0 -105 44t-44 106zM143 707q0 -51 35 -86t86 -35v243 q-51 0 -86 -35.5t-35 -86.5z" />
<glyph unicode="t" horiz-adv-x="518" d="M119 702q0 59 38 102.5t97 45.5v1122q0 14 16 15h355q12 0 12 -15q0 -10 -86 -41l-90 -33q-8 -2 -109 -40q-23 -6 -71 -27v-31h344q12 0 12 -12q0 -8 -86 -41l-90 -35q-29 -10 -109 -41q-23 -6 -71 -24v-107q39 14 172 66l137 53q31 12 35 12q12 0 12 -14q0 -6 -86 -41 q-92 -37 -199 -78q-23 -6 -71 -27v-106q39 14 172 65l137 54q31 12 35 12q12 0 12 -14q0 -6 -86 -41q-92 -37 -199 -78q-23 -6 -71 -27v-526q59 -2 97 -45t38 -103q0 -63 -43 -106t-107 -43q-63 0 -105 43t-42 106zM145 702q0 -51 35 -86.5t86 -35.5l2 122v121 q-51 0 -87 -35.5t-36 -85.5z" />
<glyph unicode="u" horiz-adv-x="518" d="M109 700q0 59 38.5 102.5t98.5 47.5v1122q0 14 16 15h354q10 0 11 -15q0 -10 -17.5 -16t-66.5 -25l-90 -33q-29 -10 -111 -40q-18 -6 -72 -27v-31h346q10 0 11 -14q0 -10 -84 -41l-90 -33q-29 -10 -111 -41q-18 -6 -72 -26v-107q14 4 174 68q37 14 138 53q29 12 32 12 q12 0 13 -14q0 -8 -84 -41q-55 -23 -201 -78q-23 -6 -72 -29v-104q39 10 174 65q31 12 138 54l32 12q13 0 13 -14q0 -8 -84 -42t-201 -77q-23 -6 -72 -29v-104q39 12 133 49q31 12 37 12t6 -12q0 -14 -38 -29q-23 -6 -46 -14q-29 -8 -92 -37v-389q59 -4 98.5 -47t39.5 -103 q0 -61 -44.5 -104t-105.5 -43t-105 43t-44 104zM137 700q0 -51 35 -85.5t86 -34.5v243q-51 0 -86 -35.5t-35 -87.5z" />
<glyph unicode="v" horiz-adv-x="518" d="M115 698q0 59 39 102.5t98 45.5v1122q0 14 16 14h355q10 0 10 -14q0 -10 -84 -41l-90 -33q-29 -10 -111 -41q-18 -6 -69 -26v-31h344q10 0 10 -12q0 -8 -84 -41l-90 -35q-55 -23 -111 -41q-18 -6 -69 -25v-106q53 18 172 66q66 27 137 53q16 6 33 12q12 0 12 -14 q0 -8 -84 -42t-201 -77q-23 -6 -69 -27v-106q53 18 172 65q66 27 137 54q16 6 33 12q12 0 12 -14q0 -8 -84 -42t-201 -77q-23 -6 -69 -27v-106q53 18 172 65q66 27 137 53q16 6 33 13q12 -1 12 -13q0 -10 -84 -43.5t-201 -76.5q-23 -6 -69 -27v-391q59 -2 97 -45t38 -103 q0 -63 -43 -106t-107 -43q-63 0 -106 43t-43 106zM143 698q0 -51 35 -87t86 -36v244q-51 0 -86 -34.5t-35 -86.5z" />
<glyph unicode="w" horiz-adv-x="518" d="M111 694q0 59 37.5 102.5t97.5 45.5v1122q0 14 16 14h354q12 0 13 -14q0 -8 -84 -39l-201 -76q-23 -6 -72 -26v-31h344q12 0 13 -12q0 -10 -84 -41l-92 -35q-20 -8 -109 -39q-12 -4 -72 -27v-106q39 14 172 65q39 14 140 54q31 12 32 12q12 0 13 -14q0 -8 -84 -41 q-76 -31 -201 -78q-23 -6 -72 -27v-106q39 14 172 65q39 14 140 54q31 12 32 12q12 0 13 -12q0 -10 -84 -43q-76 -31 -201 -78q-23 -6 -72 -27v-106q39 14 172 65q39 14 140 53q31 12 32 13q13 -1 13 -13q0 -10 -15 -14q-37 -16 -270 -106q-23 -6 -72 -27v-107h2l13 4 q27 12 104 39q8 4 29 13q14 4 16 4q12 0 13 -12q0 -10 -87 -41q-2 0 -90 -35v-256q59 -2 97.5 -45t38.5 -103q0 -61 -43 -105t-105 -44q-61 0 -105 44t-44 105zM137 694q0 -51 36 -87t87 -36v244q-51 0 -87 -35t-36 -86z" />
<glyph unicode="x" horiz-adv-x="518" d="M117 694q0 59 38 102.5t97 45.5v1122q0 14 16 14h355q12 0 12 -14q0 -6 -86 -39l-90 -35q-29 -10 -109 -41q-23 -6 -71 -26v-31h344q12 0 12 -12q0 -8 -86 -41l-90 -35q-14 -6 -109 -39q-12 -4 -71 -27v-106q39 14 172 65l137 54q31 12 35 12q12 0 12 -14q0 -6 -86 -41 q-92 -37 -199 -78q-23 -6 -71 -27v-106q39 14 172 65l137 54q31 12 35 12q12 0 12 -12q0 -8 -86 -43q-92 -37 -199 -78q-23 -6 -71 -27v-106q39 14 172 65l137 53q31 12 35 13q12 0 12 -13q0 -10 -14 -14q-78 -33 -271 -106q-23 -6 -71 -27v-107q39 14 172 66l137 53 q31 12 35 12q12 0 12 -12q0 -10 -14 -14q-78 -33 -271 -107q-23 -6 -71 -26v-256q59 -2 97 -45t38 -103q0 -61 -44 -105t-106 -44q-61 0 -104 44t-43 105zM143 694q0 -51 35 -87t86 -36l2 123v121q-51 0 -87 -36t-36 -85z" />
<glyph unicode="y" horiz-adv-x="518" d="M109 694q0 59 37.5 102.5t97.5 45.5v1122q0 14 16 14h356q10 0 11 -14q0 -8 -84 -39l-201 -76q-23 -6 -72 -26v-31h346q10 0 11 -12q0 -10 -84 -41l-92 -35q-20 -8 -109 -39q-12 -4 -72 -27v-106q39 14 172 65q39 14 140 54q31 12 32 12q12 0 13 -14q0 -8 -84 -41 q-76 -31 -201 -78q-23 -6 -72 -27v-106q39 14 172 65q39 14 140 54q31 12 32 12q12 0 13 -12q0 -10 -84 -43q-76 -31 -201 -78q-23 -6 -72 -27v-106q39 14 172 65q39 14 140 53q31 12 32 13q12 0 13 -13q0 -10 -15 -14q-37 -16 -270 -106q-23 -6 -72 -27v-107q39 14 172 66 q39 14 140 53q31 12 32 12q13 0 13 -12q0 -10 -15 -14q-37 -16 -270 -107q-23 -6 -72 -26v-107h2l13 4q27 12 104 41q8 2 29 11q14 4 16 4q12 0 12 -13q0 -10 -86 -41q-2 0 -90 -34v-121q59 -2 97.5 -45t38.5 -103q0 -61 -43.5 -105t-104.5 -44t-105 44t-44 105zM135 694 q0 -51 36 -87t87 -36l2 123v121q-53 0 -89 -35t-36 -86z" />
<glyph unicode="z" horiz-adv-x="868" d="M0 444l440 443l441 -443l-441 -440zM70 444l168 -168l165 168l-165 168zM272 242l168 -168l168 168l-168 166zM272 647l168 -166l168 166l-168 168zM477 444l166 -168l168 168l-168 168z" />
<glyph unicode="{" horiz-adv-x="874" d="M0 442l440 443l441 -441l-441 -442zM70 442l168 -166l165 168l-165 166zM272 240l168 -166l168 166l-168 168zM477 442l166 -166l168 168l-168 166z" />
<glyph unicode="|" horiz-adv-x="874" d="M0 436l440 443l441 -441l-441 -442z" />
<glyph unicode="}" horiz-adv-x="884" d="M0 692l418 420v217l-363 -201v471h49v-389l363 201v-301l418 -418l-441 -442zM72 692l168 -168l168 168l-168 168zM274 895l168 -168l168 168l-168 168zM276 487l168 -165l166 165l-168 168zM479 692l168 -168l168 168l-168 168z" />
<glyph unicode="~" horiz-adv-x="1443" d="M-8 664l395 399v172h-49l72 182l73 -182h-51v-172l395 -397l-395 -398v-284h-45v282zM51 670l164 -166l166 166l-166 166zM246 475l164 -166l165 166l-165 166zM246 864l164 -166l165 166l-165 166zM430 678l166 -164l166 164l-166 166z" />
<glyph unicode="&#xa1;" horiz-adv-x="479" d="M25 668q0 55 34.5 95t90.5 44v1003q0 8 12 10.5t12 8.5v-4q35 14 125 49q16 6 27 8q12 0 12 -12q0 -8 -80 -39q-23 -8 -84 -33v-991q55 -4 91 -44t36 -95q0 -57 -41 -97.5t-98 -40.5t-97 40t-40 98zM49 668l62 2l51 -2v114q-47 0 -80 -33.5t-33 -80.5z" />
<glyph unicode="&#xa2;" horiz-adv-x="487" d="M121 713q0 55 36 96t91 43v1018q0 12 12 12q2 0 4 -2h2q4 2 27.5 10t138.5 54l129 51q20 8 35 12q12 0 12 -12q0 -8 -80 -41q-72 -29 -188 -72q-18 -6 -68 -27v-1003q55 -2 92 -43t37 -96q0 -57 -42 -98.5t-99 -41.5t-98 41t-41 99zM145 713h115v114q-47 0 -81 -33.5 t-34 -80.5z" />
<glyph unicode="&#xa3;" horiz-adv-x="487" d="M113 711q0 55 36.5 96t92.5 43v1018q0 12 12 12h2l2 -2q4 2 29 12q41 14 137 52l131 51q31 12 35 12q10 0 10 -12q0 -8 -12 -15q-84 -33 -254 -98q-23 -6 -68 -27v-100q51 20 125 49l27 10q12 0 12 -12q0 -16 -80 -41q-27 -8 -84 -33v-876q55 -2 91 -43t36 -96 q0 -57 -41 -98.5t-98 -41.5q-59 0 -100 40t-41 100zM139 711l115 6v108q-49 0 -82 -32.5t-33 -81.5z" />
<glyph unicode="&#xa4;" horiz-adv-x="487" d="M115 713q0 55 35.5 96t91.5 43v1018q0 10 12 10h6q2 2 29 10q88 35 266 103l35 12q12 0 12 -12q0 -8 -14 -13q-31 -16 -254 -100q-18 -6 -68 -25v-100q25 8 164 64q27 10 129 49q25 8 31 10q12 0 12 -12q0 -8 -14 -13q-31 -16 -254 -100q-18 -6 -68 -24v-877 q55 -2 92 -43t37 -96q0 -59 -41 -100.5t-100 -41.5t-99 41t-40 101zM139 713h115v114q-47 0 -81 -33.5t-34 -80.5z" />
<glyph unicode="&#xa5;" horiz-adv-x="487" d="M115 705q0 55 35.5 96t91.5 43v1018q0 12 14 12h2l2 -2q4 2 29 12q41 14 137 51l131 52q31 12 35 12q10 0 10 -12q0 -8 -12 -15q-84 -33 -254 -98q-23 -6 -68 -27v-100q4 2 162 63q10 4 53 20.5t75 29t34 12.5q10 0 10 -12q0 -8 -80 -41q-53 -20 -186 -72q-23 -6 -68 -27 v-100l123 49q25 10 29 10q12 0 12 -12q0 -8 -80 -39q-23 -8 -84 -35v-749q55 -2 91 -43t36 -96q0 -57 -41 -98.5t-98 -41.5q-59 0 -100 40t-41 100zM141 705h113v114q-47 0 -80 -32.5t-33 -81.5z" />
<glyph unicode="&#xa6;" horiz-adv-x="487" d="M113 711q0 55 35.5 96t91.5 43v1020q0 10 12 10h4l2 -2q4 4 29 12q90 35 268 103q20 8 33 12q12 0 12 -12q0 -8 -12 -15q-84 -33 -256 -98q-18 -6 -68 -27v-98q29 8 164 62q10 4 53 20t76 29q14 6 31 12q12 0 12 -12q0 -8 -12 -15q-84 -33 -256 -98q-18 -6 -68 -27v-98 q29 8 164 62q10 4 53 20t76 29q14 6 31 12q12 0 12 -12q0 -8 -12 -15q-84 -33 -256 -98q-18 -6 -68 -27v-749q57 -2 93 -42t36 -97q0 -59 -41 -99.5t-100 -40.5q-57 0 -98 41t-41 99zM137 711h115v114q-49 0 -82 -32.5t-33 -81.5z" />
<glyph unicode="&#xa7;" horiz-adv-x="487" d="M113 705q0 55 36.5 96t92.5 43v1018q0 12 12 12l2 -2h2q4 2 29 10q35 12 137 53l131 52q31 12 35 12q10 0 10 -12q0 -8 -80 -41q-53 -20 -186 -72q-23 -6 -68 -27v-100q4 2 162 63q10 4 53 20.5t75 29t34 12.5q10 0 10 -12q0 -8 -80 -41q-53 -20 -186 -72q-23 -6 -68 -27 v-100q4 2 162 63q10 4 53 20.5t75 29t34 12.5q10 0 10 -14q0 -8 -12 -13q-39 -18 -254 -98q-31 -10 -68 -27v-100l123 49q25 10 29 10q12 0 12 -12q0 -10 -80 -41q-23 -8 -84 -33v-622q55 -2 91 -43t36 -96q0 -57 -41 -98.5t-98 -41.5q-59 0 -100 40t-41 100zM139 705h113 v114q-47 0 -80 -32.5t-33 -81.5z" />
<glyph unicode="&#xa8;" horiz-adv-x="489" d="M121 711q0 55 37 96t92 43v1024q0 10 12 10h6q51 18 166 64q45 18 131 51q20 8 35 12q12 0 12 -12q0 -8 -80 -41q-8 -4 -190 -72q-18 -6 -68 -26v-101q25 8 164 64l131 49q27 10 31 10q12 0 12 -12q0 -8 -14 -12q-55 -25 -256 -101q-18 -6 -68 -26v-101q23 8 164 64 l131 51q27 10 31 10q12 0 12 -12q0 -8 -80 -41q-68 -27 -190 -72q-18 -6 -68 -26v-101q25 8 164 64q37 12 131 49l31 12q12 0 12 -12q0 -10 -14 -14q-55 -25 -256 -101q-18 -6 -68 -24v-627q55 -2 92 -43t37 -96q0 -82 -63 -119q-27 -14 -33 -14h-90q-39 0 -74 55 q-23 35 -22 78zM147 711q0 -49 33 -83t82 -34v231q-47 0 -81 -33.5t-34 -80.5z" />
<glyph unicode="&#xa9;" horiz-adv-x="487" d="M113 711q0 57 35.5 97t93.5 42v1020q0 10 12 10h2q2 0 4 -2q4 4 27 12q41 14 137 52l131 51q20 8 35 12q10 0 10 -12q0 -8 -12 -15q-84 -33 -254 -98q-23 -6 -68 -27v-98q27 8 162 62q10 4 53 20t75 28.5t34 12.5q10 0 10 -12q0 -8 -12 -15q-84 -33 -254 -98 q-23 -6 -68 -27v-100q4 2 162 64q10 4 53 20t75 28.5t34 12.5q10 0 10 -12q0 -8 -12 -15q-84 -33 -254 -98q-23 -6 -68 -27v-100q4 2 162 64q10 4 53 20t75 28.5t34 12.5q10 0 10 -12q0 -8 -80 -41q-53 -20 -186 -72q-23 -6 -68 -26v-101l123 49q27 10 31 11q12 0 12 -13 q0 -8 -82 -39q-23 -8 -84 -34v-496q55 -2 91 -43t36 -96q0 -57 -41 -98.5t-98 -41.5q-59 0 -100 40t-41 100zM139 711h115v114q-49 0 -82 -32.5t-33 -81.5z" />
<glyph unicode="&#xaa;" d="M113 719q0 61 40 105t101 48v1115q0 12 16 12h365q12 0 12 -12q0 -10 -88 -43l-92 -35q-31 -10 -113 -41q-25 -8 -73 -29v-967q61 -4 100 -48t39 -105q0 -63 -45 -108.5t-109 -45.5q-63 0 -108 45t-45 109zM141 719l127 2v125q-55 0 -91 -37t-36 -90z" />
<glyph unicode="&#xab;" d="M121 717q0 61 39 105t100 48v1115q0 12 16 12h367q12 0 12 -12q0 -10 -88 -43l-92 -35q-23 -8 -113 -41q-35 -12 -65 -25l-10 -4v-117q12 4 137 54q23 8 31 10q14 0 14 -12q0 -10 -88 -46q-29 -8 -94 -36v-820q61 -4 101 -48t40 -105q0 -63 -45 -108.5t-109 -45.5 q-63 0 -108 45t-45 109zM150 717h124v127q-53 0 -88.5 -37t-35.5 -90z" />
<glyph unicode="&#xac;" d="M113 725q0 59 40 104t99 48v1116q0 12 18 12h365q12 0 12 -14q0 -12 -88 -43l-92 -33q-31 -12 -113 -43q-20 -6 -73 -27v-119q2 0 178 70q39 14 141 53q31 12 35 13q12 -1 12 -13t-39 -26q-25 -8 -49 -17q-57 -23 -205 -80q-20 -8 -73 -28v-821q59 -2 99 -47.5t40 -104.5 q0 -63 -45 -108.5t-109 -45.5q-63 0 -108 45.5t-45 108.5zM141 725h125v125q-51 0 -88 -37t-37 -88z" />
<glyph unicode="&#xad;" d="M113 725q0 61 38.5 105t100.5 47v1116q0 12 16 12h367q12 0 12 -14q0 -10 -18.5 -16.5t-69.5 -24.5l-92 -35q-31 -10 -113 -43q-25 -6 -73 -27v-116q33 10 178 67q39 14 141 55q31 12 35 13q12 -1 12 -15q0 -10 -14 -14q-127 -53 -279 -109q-20 -8 -73 -28v-109 q74 27 135 51q31 12 33 13q12 0 12 -15q0 -8 -88 -43q-29 -8 -92 -36v-682q61 -2 100 -46.5t39 -105.5q0 -63 -45 -108.5t-109 -45.5q-63 0 -108 45.5t-45 108.5zM141 725h125v125q-51 0 -88 -37t-37 -88z" />
<glyph unicode="&#xae;" d="M113 719q0 61 40 106t99 47v1115q0 12 16 12h367q12 0 12 -12q0 -10 -88 -43l-92 -35q-23 -8 -113 -41q-20 -6 -73 -27v-119q41 16 178 70q39 14 141 53q31 12 35 13q12 0 12 -13q0 -10 -88 -45q-57 -23 -205 -80q-25 -6 -73 -26v-111q41 16 178 70q39 14 141 53 q31 12 35 12q12 0 12 -12q0 -10 -88 -45q-27 -10 -205 -80q-25 -6 -73 -27v-682q59 -2 99 -47t40 -106q0 -63 -45 -108.5t-109 -45.5q-63 0 -108 45t-45 109zM141 719l123 2v125q-51 0 -87 -37t-36 -90z" />
<glyph unicode="&#xaf;" d="M115 725q0 61 39 105t100 49v1114q0 12 16 12h367q12 0 12 -12q0 -10 -88 -43l-92 -35q-23 -8 -113 -41q-20 -6 -73 -27v-118q41 16 178 69q39 14 141 53q31 12 35 13q12 0 12 -15q0 -8 -88 -43q-57 -23 -205 -80q-25 -6 -73 -28v-109q41 16 178 70q39 14 141 53 q31 12 35 12q12 0 12 -14q0 -8 -88 -43q-57 -23 -205 -80q-25 -6 -73 -28v-109q10 4 135 53q23 8 31 10q14 0 14 -12q0 -10 -88 -43q-33 -12 -92 -37v-542q59 -2 99 -47.5t40 -106.5q0 -63 -45 -108.5t-109 -45.5q-63 0 -108 45.5t-45 108.5zM143 725l125 2v125 q-53 0 -89 -37t-36 -90z" />
<glyph unicode="&#xb0;" d="M111 725q0 61 39.5 105t101.5 49v1114q0 12 16 12h367q10 0 10 -12q0 -10 -86 -43l-94 -35q-31 -10 -113 -41q-10 -4 -73 -27v-118q2 0 178 69q39 14 141 53q31 12 35 13q12 0 12 -15q0 -10 -86 -43l-207 -80q-23 -6 -73 -28v-109q2 0 178 70q39 14 141 53q31 12 35 12 q12 0 12 -14q0 -10 -86 -43l-207 -80q-23 -6 -73 -26v-111q2 0 178 70q39 14 141 53q31 12 35 12q12 0 12 -12t-86 -45l-207 -80q-23 -6 -73 -27v-542q59 -2 99 -47.5t40 -106.5q0 -63 -45 -108.5t-109 -45.5q-63 0 -108 45.5t-45 108.5zM139 725l127 2v125q-55 0 -91 -37 t-36 -90z" />
<glyph unicode="&#xb1;" d="M119 719q0 61 40 106t99 47v1115q0 12 16 12h367q12 0 12 -12q0 -10 -88 -43l-94 -35q-43 -16 -113 -41l-73 -27v-119q2 0 178 70q39 14 141 53q29 10 35 13q14 0 14 -13q0 -12 -88 -45q-45 -16 -207 -80q-23 -6 -73 -26v-111q2 0 178 70q39 14 141 53q29 10 35 12 q14 0 14 -12t-88 -45q-45 -16 -207 -80q-23 -6 -73 -27v-110q2 0 178 69q39 14 141 54q29 10 35 12q14 0 14 -12t-88 -45q-45 -16 -207 -80q-23 -6 -73 -27v-110q39 16 135 53q23 8 33 10q14 0 14 -12q0 -10 -88 -43q-47 -16 -94 -37v-404q61 -2 101 -47t40 -106 q0 -63 -45 -108.5t-109 -45.5q-63 0 -108 45t-45 109zM145 719l125 2v125q-51 0 -88 -37t-37 -90z" />
<glyph unicode="&#xb2;" d="M113 725q0 61 38.5 105t100.5 47v1116q0 12 16 12h367q12 0 12 -14q0 -10 -18 -15q-10 -4 -70 -26l-94 -35q-29 -12 -113 -43q-20 -6 -73 -27v-116q33 8 178 67q39 16 141 55q29 10 35 13q14 0 14 -15q0 -10 -16 -14q-59 -27 -279 -109q-29 -10 -73 -28v-109q33 8 178 68 q39 16 141 55q29 10 35 12q14 0 14 -14q0 -10 -16 -14q-59 -27 -279 -109q-29 -10 -73 -28v-109q37 12 178 68l141 55q29 10 35 12q14 0 14 -14q0 -10 -16 -15q-57 -27 -279 -108q-23 -6 -73 -29v-108q37 12 178 67l141 56q29 10 35 12q14 0 14 -14q0 -10 -16 -15 q-57 -27 -279 -108q-23 -6 -73 -29v-403q61 -2 101 -46.5t40 -105.5q0 -63 -45 -108.5t-109 -45.5q-63 0 -108 45.5t-45 108.5zM139 725h127v125q-53 0 -90 -36t-37 -89z" />
<glyph unicode="&#xb3;" d="M113 725q0 61 38.5 105t100.5 49v1114q0 12 16 12h367q12 0 12 -14q0 -10 -18.5 -16.5t-69.5 -24.5l-92 -35q-23 -8 -113 -41q-31 -12 -63 -25l-10 -4v-116q41 14 178 67q47 18 141 55q31 12 35 13q12 0 12 -15q0 -10 -15.5 -15t-277.5 -108q-25 -6 -73 -28v-109 q41 14 178 68q47 18 141 55q31 12 35 12q12 0 12 -14q0 -8 -88 -43q-57 -23 -205 -80q-25 -6 -73 -28v-109q41 14 178 68q47 18 141 55q31 12 35 12q12 0 12 -14q0 -8 -88 -43q-57 -23 -205 -80q-25 -6 -73 -29v-108q41 14 178 67q47 18 141 56q31 12 35 12q12 0 12 -14 q0 -8 -88 -43q-57 -23 -205 -80q-25 -6 -73 -29v-109l14 5q25 10 106 41q14 6 31 10l14 6q14 0 15 -14q0 -10 -88 -41q-27 -8 -92 -37v-262q61 -4 100 -48.5t39 -105.5q0 -63 -45 -108.5t-109 -45.5q-63 0 -108 45.5t-45 108.5zM141 725h125v125q-51 0 -88 -37t-37 -88z" />
<glyph unicode="&#xb4;" horiz-adv-x="518" d="M113 723q0 59 38.5 102t98.5 45v1123q0 14 16 14h355q12 0 12 -14q0 -6 -86 -39l-90 -35q-29 -10 -109 -41q-23 -6 -72 -27v-30h345q12 -1 12 -13q0 -10 -86 -41l-90 -32q-29 -12 -109 -41q-12 -4 -72 -27v-797q59 -2 97.5 -45t38.5 -102q0 -61 -44 -105.5t-106 -44.5 q-61 0 -105 44.5t-44 105.5zM141 723h121v121q-49 0 -85 -36t-36 -85z" />
<glyph unicode="&#xb5;" horiz-adv-x="518" d="M106 721q0 59 38 102t98 47v1121q0 16 16 16h354q12 0 13 -14q0 -10 -15.5 -15.5t-70.5 -25.5l-90 -33q-8 -2 -109 -41q-23 -6 -72 -27v-30h344q13 -1 13 -15q0 -10 -86 -41l-90 -32q-8 -2 -109 -41q-23 -6 -72 -27v-106q14 6 131 51q14 6 31 12q14 0 14 -14 q0 -8 -86 -41q-35 -12 -90 -37v-660q59 -4 97 -47t38 -102q0 -61 -44 -104.5t-105 -43.5t-104.5 43t-43.5 105zM133 721h121v123q-51 0 -86 -36t-35 -87z" />
<glyph unicode="&#xb6;" horiz-adv-x="518" d="M121 723q0 59 38 102t97 45v1123q0 14 16 14h355q12 0 12 -12q0 -8 -86 -41l-90 -35q-29 -10 -109 -41q-23 -6 -71 -25v-32h344q12 0 12 -13q0 -10 -86 -41l-90 -32q-29 -12 -109 -41q-12 -4 -71 -27v-106q39 14 172 65l137 53q31 12 35 13q12 -1 12 -13q0 -8 -86 -43 q-92 -37 -199 -77q-23 -6 -71 -27v-662q59 -2 97 -45t38 -102q0 -63 -43 -106.5t-107 -43.5q-61 0 -104 44.5t-43 105.5zM147 723h121v121q-49 0 -85 -36t-36 -85z" />
<glyph unicode="&#xb7;" horiz-adv-x="518" d="M113 723q0 59 38.5 102t98.5 45v1123q0 14 16 14h355q10 0 10 -12q0 -10 -84 -41l-90 -33q-29 -12 -109 -41q-12 -4 -72 -27v-30h345q10 0 10 -15q0 -10 -15 -14q-25 -10 -69 -27l-90 -32q-8 -2 -109 -41q-23 -6 -72 -27v-106q2 0 173 67q39 14 137 51q16 6 32 13 q13 -1 13 -13q0 -10 -15 -14q-76 -35 -268 -104l-6 -2q-33 -12 -66 -27v-107q37 14 132 52q14 6 30 12q12 0 13 -14q0 -8 -84 -41q-41 -16 -91 -37v-527q59 -2 97.5 -45t38.5 -102q0 -61 -44 -105.5t-106 -44.5q-61 0 -105 44.5t-44 105.5zM141 723h121q2 -4 2 0v123 q-53 0 -88 -36t-35 -87z" />
<glyph unicode="&#xb8;" horiz-adv-x="518" d="M117 719q0 59 38 102t97 45v1123q0 14 16 14h355q12 0 12 -14q0 -10 -86 -41l-90 -33q-8 -2 -109 -41q-23 -6 -71 -27v-30h344q12 0 12 -13q0 -8 -86 -41l-90 -34q-29 -10 -109 -41q-23 -6 -71 -25v-107q39 14 172 66l137 53q31 12 35 13q12 0 12 -15q0 -6 -86 -41 q-92 -37 -199 -78q-23 -6 -71 -26v-107q39 14 172 66l137 53q31 12 35 12q12 0 12 -14q0 -6 -86 -41q-92 -37 -199 -78q-23 -6 -71 -26v-527q59 -2 97 -45t38 -102q0 -63 -43 -106.5t-107 -43.5q-63 0 -105 43t-42 107zM143 719h123v121q-51 0 -87 -36t-36 -85z" />
<glyph unicode="&#xb9;" horiz-adv-x="518" d="M106 717q0 59 39 102t99 47v1123q0 14 16 14h354q10 0 11 -14q0 -10 -17.5 -16.5t-66.5 -24.5l-90 -33q-29 -10 -111 -41q-18 -6 -72 -27v-30h346q10 0 11 -15q0 -10 -84 -41l-90 -32q-29 -10 -111 -41q-18 -6 -72 -27v-107q14 4 174 68q37 14 138 53q29 12 32 13 q12 0 13 -15q0 -8 -84 -41q-55 -23 -201 -78q-23 -6 -72 -28v-105q39 10 174 66q31 12 138 53l32 12q13 0 13 -14q0 -8 -84 -42t-201 -77q-23 -6 -72 -28v-105q39 12 133 49q31 12 37 12.5t6 -12.5q0 -14 -38 -28q-23 -6 -46 -15q-29 -8 -92 -37v-389q59 -4 98.5 -47 t39.5 -102q0 -61 -44.5 -104.5t-105.5 -43.5t-105.5 43t-44.5 105zM135 717h121v123q-51 0 -86 -36t-35 -87z" />
<glyph unicode="&#xba;" horiz-adv-x="1435" d="M2 678l397 399v170h-51l74 185l74 -185h-52v-170l396 -397l-396 -397v-285h-45v283zM61 678l164 -164l166 164l-166 166zM256 483l164 -164l168 164l-168 166zM451 678l165 -164l166 164l-166 166z" />
<glyph unicode="&#xbb;" horiz-adv-x="1433" d="M8 672l398 399v170h-52l74 182l74 -182h-51v-170l395 -397l-395 -400v-284h-45v284zM264 475l166 -164l164 164l-164 168zM264 866l166 -166l164 166l-164 166zM461 672l164 -166l166 166l-166 166z" />
<glyph unicode="&#xbc;" horiz-adv-x="1435" d="M2 678l397 399v170h-51l74 185l74 -185h-52v-170l396 -397l-396 -397v-285h-45v283zM61 678l164 -164l166 164l-166 166zM256 483l164 -164l168 164l-168 166zM451 678l165 -164l166 164l-166 166z" />
<glyph unicode="&#xbd;" horiz-adv-x="1433" d="M8 672l398 399v170h-52l74 182l74 -182h-51v-170l395 -397l-395 -400v-284h-45v284zM264 475l166 -164l164 164l-164 168zM264 866l166 -166l164 166l-164 166zM461 672l164 -166l166 166l-166 166z" />
<glyph unicode="&#xbe;" horiz-adv-x="1015" d="M2 682l397 399v172h-51l74 183l74 -183h-52v-172l396 -397l-396 -397v-285h-45v283zM61 684l166 -166l164 166l-164 166zM256 879l166 -164l166 164l-166 165zM451 684l165 -166l166 166l-166 166z" />
<glyph unicode="&#xbf;" horiz-adv-x="1443" d="M-8 664l395 399v172h-49l72 182l73 -182h-51v-172l395 -397l-395 -398v-284h-45v282zM51 670l164 -166l166 166l-166 166zM246 475l164 -166l165 166l-165 166zM246 864l164 -166l165 166l-165 166z" />
<glyph unicode="&#xc0;" horiz-adv-x="518" d="M104 715q0 59 39 102t99 45v1123q0 14 16 14h354q10 0 11 -14q0 -10 -84 -41l-90 -33q-29 -10 -111 -41q-18 -6 -70 -27v-31h344q10 0 11 -12q0 -8 -84 -41l-90 -35q-55 -23 -111 -41q-18 -6 -70 -24v-107q53 18 172 66q66 27 138 53l32 12q12 0 13 -14q0 -8 -84 -42 t-201 -77q-23 -6 -70 -26v-107q53 18 172 66q66 27 138 53l32 12q12 0 13 -14q0 -8 -84 -42t-201 -77q-23 -6 -70 -26v-107q53 18 172 66q66 27 138 53l32 12q13 0 13 -12q0 -10 -84 -44t-201 -77q-23 -6 -70 -27v-391q59 -2 97 -45t38 -102q0 -63 -43 -106.5t-106 -43.5 t-106.5 43t-43.5 107zM133 715h119v121q-49 0 -84 -35t-35 -86z" />
<glyph unicode="&#xc1;" horiz-adv-x="518" d="M100 711q0 59 38 102t98 45v1122q0 14 16 15h354q12 0 12 -15q0 -8 -83 -38l-201 -76q-23 -6 -72 -27v-31h344q12 0 12 -12q0 -10 -83 -41l-93 -35q-20 -8 -108 -39q-12 -4 -72 -26v-107q39 14 172 66q39 14 139 53q31 12 33 12q12 0 12 -14q0 -8 -83 -41 q-76 -31 -201 -78q-23 -6 -72 -26v-107q39 14 172 66q39 14 139 53q31 12 33 12q12 0 12 -12q0 -10 -83 -43q-76 -31 -201 -78q-23 -6 -72 -27v-106q39 14 172 65q39 14 139 54q31 12 33 12q12 0 12 -12q0 -10 -14 -15q-37 -16 -270 -106q-23 -6 -72 -27v-106h2l12 4 q27 12 105 39q8 4 29 12q14 4 16 4q12 0 12 -12q0 -10 -86 -41q-2 0 -90 -35v-256q59 -2 97 -45t38 -102q0 -61 -43 -105.5t-104 -44.5t-105.5 44t-44.5 106zM127 711h123v120q-51 0 -87 -34.5t-36 -85.5z" />
<glyph unicode="&#xc2;" horiz-adv-x="518" d="M106 711q0 59 38 102t98 45v1122q0 14 16 15h354q12 0 13 -15q0 -6 -86 -38l-90 -35q-29 -10 -109 -41q-23 -6 -72 -27v-31h344q12 0 13 -12q0 -8 -86 -41l-90 -35q-14 -6 -109 -39q-12 -4 -72 -26v-107q39 14 172 66l138 53q31 12 34 12q12 0 13 -14q0 -6 -86 -41 q-92 -37 -199 -78q-23 -6 -72 -26v-107q39 14 172 66l138 53q31 12 34 12q12 0 13 -12q0 -8 -86 -43q-92 -37 -199 -78q-23 -6 -72 -27v-106q39 14 172 65l138 54q31 12 34 12q12 0 13 -12q0 -10 -15 -15q-78 -33 -270 -106q-23 -6 -72 -27v-106q39 14 172 65l138 54 q31 12 34 12q13 0 13 -12q0 -10 -15 -15q-78 -33 -270 -106q-23 -6 -72 -27v-256q59 -2 97 -45t38 -102q0 -61 -44 -105.5t-105 -44.5t-104.5 44t-43.5 106zM133 711h123v120q-51 0 -87 -35.5t-36 -84.5z" />
<glyph unicode="&#xc3;" horiz-adv-x="518" d="M98 711q0 59 38 102t97 45v1122q0 14 17 15h356q10 0 10 -15q0 -8 -84 -38l-200 -76q-23 -6 -72 -27v-31h346q10 0 10 -12q0 -10 -84 -41l-92 -35q-20 -8 -108 -39q-12 -4 -72 -26v-107q39 14 172 66q39 14 139 53q31 12 33 12q12 0 12 -14q0 -8 -84 -41 q-76 -31 -200 -78q-23 -6 -72 -26v-107q39 14 172 66q39 14 139 53q31 12 33 12q12 0 12 -12q0 -10 -84 -43q-76 -31 -200 -78q-23 -6 -72 -27v-106q39 14 172 65q39 14 139 54q31 12 33 12q12 0 12 -12q0 -10 -14 -15q-37 -16 -270 -106q-23 -6 -72 -27v-106q39 14 172 65 q39 14 139 54q31 12 33 12q12 0 12 -12q0 -10 -14 -15q-37 -16 -270 -106q-23 -6 -72 -27v-106h2l117 45q8 2 29 10q14 4 16 4q12 0 12 -12q0 -10 -86 -41q-2 0 -90 -35v-121q59 -2 97 -45t38 -102q0 -61 -43 -105.5t-104 -44.5t-105.5 44t-44.5 106zM125 711h123v120 q-51 0 -87 -34.5t-36 -85.5z" />
<glyph unicode="&#xc4;" horiz-adv-x="878" d="M0 541l422 426v110h47v-121l414 -413l-414 -416v-121h-47v113zM70 541l168 -166l168 168l-168 166zM272 338l148 -145v292zM274 745l146 -145v293zM471 201l137 137l-137 139v-276zM471 608l137 137l-137 138v-275zM477 543l168 -168l166 166l-168 168z" />
<glyph unicode="&#xc5;" horiz-adv-x="479" d="M37 662q0 55 34.5 95t90.5 44v1003q0 8 12 10.5t12 8.5v-4q35 14 125 49q16 6 27 8q12 0 12 -12q0 -8 -80 -39q-23 -8 -84 -33v-991q55 -4 91 -44t36 -95q0 -57 -41 -97.5t-98 -40.5t-97 40t-40 98z" />
<glyph unicode="&#xc6;" horiz-adv-x="487" d="M125 700q0 55 36 96.5t91 43.5v1018q0 12 12 12q2 0 4 -2h2q4 2 28 10t138 53l129 51q20 8 35 13q12 -1 12 -13q0 -8 -80 -40q-72 -29 -188 -72q-18 -6 -68 -27v-1003q55 -2 92.5 -43t37.5 -97q0 -57 -42 -98t-100 -41q-57 0 -98 41t-41 98z" />
<glyph unicode="&#xc7;" horiz-adv-x="487" d="M117 698q0 55 36.5 96.5t92.5 43.5v1017q0 12 12 13h2l2 -2q4 2 29 12q41 14 137 51l131 51q31 12 35 13q10 -1 10 -13q0 -8 -12 -14q-84 -33 -254 -98q-23 -6 -68 -27v-100q51 20 125 49l27 10q12 0 12 -12q0 -16 -80 -41q-27 -8 -84 -33v-876q55 -2 91 -43t36 -97 q0 -57 -41 -98t-98 -41q-59 0 -100 40t-41 99z" />
<glyph unicode="&#xc8;" horiz-adv-x="487" d="M119 700q0 55 35.5 96.5t91.5 43.5v1018q0 10 12 10h6q2 2 29 10q88 35 266 102l35 13q12 0 12 -13q0 -8 -14 -12q-31 -16 -254 -100q-18 -6 -68 -25v-100q25 8 164 63q27 10 129 49q25 8 31 11q12 -1 12 -13q0 -8 -14 -12q-31 -16 -254 -100q-18 -6 -68 -25v-876 q55 -2 92 -43t37 -97q0 -59 -41 -100t-100 -41t-99 41t-40 100z" />
<glyph unicode="&#xc9;" horiz-adv-x="487" d="M119 692q0 55 35.5 96t91.5 43v1018q0 12 14 13h2l2 -2q4 2 29 12q41 14 137 51l131 51q31 12 35 13q10 0 10 -13q0 -8 -12 -14q-84 -33 -254 -98q-23 -6 -68 -27v-100q4 2 162 63q10 4 53 20.5t75 29t34 12.5q10 -1 10 -13q0 -8 -80 -41q-53 -20 -186 -71 q-23 -6 -68 -27v-100l123 49q25 10 29 10q12 0 12 -12q0 -8 -80 -39q-23 -8 -84 -35v-750q55 -2 91 -42.5t36 -96.5q0 -57 -41 -98t-98 -41q-59 0 -100 40t-41 99z" />
<glyph unicode="&#xca;" horiz-adv-x="487" d="M117 698q0 55 35.5 96.5t91.5 43.5v1020q0 10 12 10h4l2 -2q4 4 29 12q90 35 268 102q20 8 33 13q12 0 12 -13q0 -8 -12 -14q-84 -33 -256 -98q-18 -6 -68 -27v-98q29 8 164 61q10 4 53 20.5t76 28.5q14 6 31 13q12 0 12 -13q0 -8 -12 -14q-84 -33 -256 -98 q-18 -6 -68 -27v-98q29 8 164 61q10 4 53 20.5t76 28.5q14 6 31 13q12 -1 12 -13q0 -8 -12 -14q-84 -33 -256 -98q-18 -6 -68 -27v-749q57 -2 93 -42t36 -98q0 -59 -41 -99t-100 -40q-57 0 -98 41t-41 98z" />
<glyph unicode="&#xcb;" horiz-adv-x="487" d="M117 692q0 55 36.5 96t92.5 43v1018q0 12 12 13l2 -2h2q4 2 29 10q35 12 137 53l131 51q31 12 35 13q10 0 10 -13q0 -8 -80 -41q-53 -20 -186 -71q-23 -6 -68 -27v-100q4 2 162 63q10 4 53 20.5t75 29t34 12.5q10 0 10 -13q0 -8 -80 -41q-53 -20 -186 -71q-23 -6 -68 -27 v-100q4 2 162 63q10 4 53 20.5t75 29t34 12.5q10 -1 10 -15q0 -8 -12 -12q-39 -18 -254 -98q-31 -10 -68 -27v-100l123 49q25 10 29 10q12 0 12 -12q0 -10 -80 -41q-23 -8 -84 -33v-623q55 -2 91 -42.5t36 -96.5q0 -57 -41 -98t-98 -41q-59 0 -100 40t-41 99z" />
<glyph unicode="&#xcc;" horiz-adv-x="489" d="M125 698q0 55 37 96.5t92 43.5v1024q0 10 12 10h6q51 18 166 63q45 18 131 52q20 8 35 12q12 0 12 -12q0 -8 -79 -41q-8 -4 -191 -72q-18 -6 -67 -27v-100q25 8 163 63l131 50q27 10 31 10q12 0 12 -12q0 -8 -14 -13q-55 -25 -256 -100q-18 -6 -67 -27v-100q23 8 163 63 l131 52q27 10 31 10q12 0 12 -12q0 -8 -79 -41q-68 -27 -191 -72q-18 -6 -67 -27v-100q25 8 163 63q37 12 131 50l31 12q12 0 12 -12q0 -10 -14 -15q-55 -25 -256 -100q-18 -6 -67 -25v-626q55 -2 92 -43t37 -97q0 -82 -64 -118q-27 -14 -33 -15h-90q-39 0 -74 56 q-23 35 -22 77z" />
<glyph unicode="&#xcd;" horiz-adv-x="487" d="M117 698q0 57 35.5 97.5t93.5 42.5v1020q0 10 12 10h2q2 0 4 -2q4 4 27 12q41 14 137 51l131 51q20 8 35 13q10 0 10 -13q0 -8 -12 -14q-84 -33 -254 -98q-23 -6 -68 -27v-98q27 8 162 61q10 4 53 20.5t75 29t34 12.5q10 0 10 -13q0 -8 -12 -14q-84 -33 -254 -98 q-23 -6 -68 -27v-100q4 2 162 63q10 4 53 20.5t75 29t34 12.5q10 0 10 -13q0 -8 -12 -14q-84 -33 -254 -98q-23 -6 -68 -27v-100q4 2 162 63q10 4 53 20.5t75 29t34 12.5q10 -1 10 -13q0 -8 -80 -40q-53 -20 -186 -72q-23 -6 -68 -27v-100l123 49q27 10 31 10q12 0 12 -12 q0 -8 -82 -39q-23 -8 -84 -35v-495q55 -2 91 -43t36 -97q0 -57 -41 -98t-98 -41q-59 0 -100 40t-41 99z" />
<glyph unicode="&#xce;" d="M117 707q0 61 40 105t101 48v1114q0 12 16 13h365q12 -1 12 -13q0 -10 -88 -43l-92 -35q-31 -10 -113 -41q-25 -8 -73 -28v-967q61 -4 100 -48t39 -105q0 -63 -45 -108.5t-109 -45.5q-63 0 -108 45t-45 109z" />
<glyph unicode="&#xcf;" d="M125 705q0 61 39 105t100 48v1114q1 13 17 13h366q12 0 12 -13q0 -10 -88 -43l-92 -35q-23 -8 -112 -41q-35 -12 -66 -24l-10 -4v-117q12 4 137 53q23 8 31 11q14 0 14 -13q0 -10 -88 -45q-29 -8 -94 -37v-819q61 -4 101 -48t40 -105q0 -63 -45 -108.5t-108 -45.5 t-108.5 45t-45.5 109z" />
<glyph unicode="&#xd0;" d="M117 713q0 59 40 104t99 47v1116q0 12 18 13h365q12 0 12 -15q0 -12 -88 -43l-92 -32q-31 -12 -113 -43q-20 -6 -73 -27v-119q2 0 178 70q39 14 141 53q31 12 35 12q12 0 12 -12t-39 -27q-25 -8 -49 -16q-57 -23 -205 -80q-20 -8 -73 -28v-822q59 -2 99 -47t40 -104 q0 -63 -45 -108.5t-109 -45.5q-63 0 -108 45t-45 109z" />
<glyph unicode="&#xd1;" d="M117 713q0 61 39 105t100 46v1116q0 12 16 13h367q12 0 12 -15q0 -10 -18.5 -16t-69.5 -25l-92 -34q-31 -10 -113 -43q-25 -6 -73 -27v-117q33 10 178 68q39 14 141 55q31 12 35 12q12 0 12 -14q0 -10 -14 -14q-127 -53 -279 -109q-20 -8 -73 -28v-109q74 27 135 51 q31 12 33 12q12 0 12 -14q0 -8 -88 -43q-29 -8 -92 -37v-682q61 -2 100 -46t39 -105q0 -63 -45 -108.5t-109 -45.5q-63 0 -108 45t-45 109z" />
<glyph unicode="&#xd2;" d="M117 707q0 61 40 106t99 47v1114q0 12 16 13h367q12 0 12 -13q0 -10 -88 -43l-92 -35q-23 -8 -113 -41q-20 -6 -73 -26v-119q41 16 178 70q39 14 141 53q31 12 35 12q12 0 12 -12q0 -10 -88 -45q-57 -23 -205 -80q-25 -6 -73 -27v-110q41 16 178 69q39 14 141 54 q31 12 35 12q12 0 12 -12q0 -10 -88 -45q-27 -10 -205 -80q-25 -6 -73 -27v-682q59 -2 99 -47t40 -106q0 -63 -45 -108.5t-109 -45.5q-63 0 -108 45t-45 109z" />
<glyph unicode="&#xd3;" d="M119 713q0 61 39 105t100 48v1114q0 12 16 13h367q12 0 12 -13q0 -10 -88 -43l-92 -34q-23 -8 -113 -41q-20 -6 -73 -27v-119q41 16 178 70q39 14 141 53q31 12 35 12q12 0 12 -14q0 -8 -88 -43q-57 -23 -205 -80q-25 -6 -73 -28v-109q41 16 178 70q39 14 141 53 q31 12 35 12q12 0 12 -14q0 -8 -88 -43q-57 -23 -205 -80q-25 -6 -73 -29v-108q10 4 135 53q23 8 31 10q14 0 14 -12q0 -10 -88 -43q-33 -12 -92 -37v-543q59 -2 99 -47t40 -106q0 -63 -45 -108.5t-109 -45.5q-63 0 -108 45t-45 109z" />
<glyph unicode="&#xd4;" d="M115 713q0 61 40 105t101 48v1114q0 12 16 13h367q10 0 10 -13q0 -10 -86 -43l-94 -34q-31 -10 -113 -41q-10 -4 -73 -27v-119q2 0 178 70q39 14 141 53q31 12 35 12q12 0 12 -14q0 -10 -86 -43l-207 -80q-23 -6 -73 -28v-109q2 0 178 70q39 14 141 53q31 12 35 12 q12 0 12 -14q0 -10 -86 -43l-207 -80q-23 -6 -73 -27v-110q2 0 178 69q39 14 141 54q31 12 35 12q12 0 12 -12t-86 -45l-207 -80q-23 -6 -73 -27v-543q59 -2 99 -47t40 -106q0 -63 -45 -108.5t-109 -45.5q-63 0 -108 45t-45 109z" />
<glyph unicode="&#xd5;" d="M123 707q0 61 40 106t99 47v1114q0 12 17 13h366q12 0 12 -13q0 -10 -88 -43l-94 -35q-43 -16 -113 -41l-73 -26v-119q2 0 178 70q39 14 141 53q29 10 35 12q14 0 14 -12t-88 -45q-45 -16 -207 -80q-23 -6 -73 -27v-110q2 0 178 69q39 14 141 54q29 10 35 12q14 0 14 -12 t-88 -45q-45 -16 -207 -80q-23 -6 -73 -27v-110q2 0 178 69q39 14 141 53q29 10 35 13q14 -1 14 -13t-88 -45q-45 -16 -207 -79q-23 -6 -73 -27v-111q39 16 135 54q23 8 33 10q14 0 14 -13q0 -10 -88 -43q-47 -16 -94 -36v-404q61 -2 101 -47t40 -106q0 -63 -45 -108.5 t-109 -45.5q-63 0 -108 45t-45 109z" />
<glyph unicode="&#xd6;" d="M117 713q0 61 39 105t100 46v1116q0 12 16 13h367q12 0 12 -15q0 -10 -18 -14q-10 -4 -70 -27l-94 -34q-29 -12 -113 -43q-20 -6 -73 -27v-117q33 8 178 68q39 16 141 55q29 10 35 12q14 0 14 -14q0 -10 -16 -14q-59 -27 -279 -109q-29 -10 -73 -28v-109q33 8 178 68 q39 16 141 55q29 10 35 12q14 0 14 -14q0 -10 -16 -15q-59 -27 -279 -108q-29 -10 -73 -29v-108q37 12 178 67l141 56q29 10 35 12q14 0 14 -14q0 -10 -16 -15q-57 -27 -279 -108q-23 -6 -73 -29v-109q37 12 178 68l141 55q29 10 35 13q14 -1 14 -15q0 -10 -16 -14 q-57 -27 -279 -109q-23 -6 -73 -28v-404q61 -2 101 -46t40 -105q0 -63 -45 -108.5t-109 -45.5q-63 0 -108 45t-45 109z" />
<glyph unicode="&#xd7;" d="M117 713q0 61 39 105t100 48v1114q0 12 16 13h367q12 0 12 -15q0 -10 -18.5 -16t-69.5 -25l-92 -34q-23 -8 -113 -41q-31 -12 -63 -25l-10 -4v-117q41 14 178 68q47 18 141 55q31 12 35 12q12 0 12 -14q0 -10 -15 -15t-278 -108q-25 -6 -73 -28v-109q41 14 178 68 q47 18 141 55q31 12 35 12q12 0 12 -14q0 -8 -88 -43q-57 -23 -205 -80q-25 -6 -73 -29v-108q41 14 178 67q47 18 141 56q31 12 35 12q12 0 12 -14q0 -8 -88 -43q-57 -23 -205 -80q-25 -6 -73 -29v-109q41 14 178 68q47 18 141 55q31 12 35 13q12 -1 12 -15q0 -8 -88 -43 q-57 -23 -205 -80q-25 -6 -73 -28v-109l14 4q25 10 107 41q14 6 30 10l15 7q14 0 14 -15q0 -10 -88 -41q-27 -8 -92 -37v-262q61 -4 100 -48t39 -105q0 -63 -45 -108.5t-109 -45.5q-63 0 -108 45t-45 109z" />
<glyph unicode="&#xd8;" horiz-adv-x="518" d="M117 702q0 59 39 102.5t98 45.5v1122q0 14 16 15h355q12 0 12 -15q0 -6 -86 -39l-90 -35q-29 -10 -109 -40q-23 -6 -71 -27v-31h344q12 0 12 -12q0 -10 -86 -41l-90 -33q-29 -12 -109 -41q-12 -4 -71 -26v-797q59 -2 97 -45t38 -103q0 -61 -44 -105t-106 -44 q-61 0 -105 44t-44 105z" />
<glyph unicode="&#xd9;" horiz-adv-x="518" d="M111 700q0 59 37.5 102.5t97.5 47.5v1120q0 16 16 17h354q12 0 13 -15q0 -10 -15.5 -15t-70.5 -26l-90 -33q-8 -2 -109 -40q-23 -6 -72 -27v-31h344q13 0 13 -14q0 -10 -86 -41l-90 -33q-8 -2 -109 -41q-23 -6 -72 -26v-107q14 6 131 51q14 6 31 13q14 0 15 -15 q0 -8 -87 -41q-35 -12 -90 -37v-659q59 -4 97.5 -47t38.5 -103q0 -61 -44.5 -104t-105.5 -43t-104 43t-43 104z" />
<glyph unicode="&#xda;" horiz-adv-x="518" d="M125 711q0 59 38 102t97 45v1122q0 14 16 15h355q12 0 12 -13q0 -8 -86 -40l-90 -35q-29 -10 -109 -41q-23 -6 -71 -25v-33h344q12 0 12 -12q0 -10 -86 -41l-90 -33q-29 -12 -109 -41q-12 -4 -71 -26v-107q39 14 172 66l137 53q31 12 35 12q12 0 12 -12q0 -8 -86 -43 q-92 -37 -199 -78q-23 -6 -71 -26v-662q59 -2 97 -45t38 -102q0 -63 -43 -106.5t-107 -43.5q-61 0 -104 44t-43 106z" />
<glyph unicode="&#xdb;" horiz-adv-x="518" d="M117 711q0 59 39 102t98 45v1122q0 14 16 15h355q10 0 10 -13q0 -10 -84 -40l-90 -33q-29 -12 -109 -41q-12 -4 -71 -27v-31h344q10 0 10 -14q0 -10 -14 -14q-25 -10 -70 -27l-90 -33q-8 -2 -109 -41q-23 -6 -71 -26v-107q2 0 172 68q39 14 137 51q16 6 33 12 q12 0 12 -12q0 -10 -14 -14q-76 -35 -269 -105l-6 -2q-33 -12 -65 -26v-107q37 14 131 51q14 6 30 13q12 0 13 -15q0 -8 -84 -41q-41 -16 -90 -37v-526q59 -2 97 -45t38 -102q0 -61 -44 -105.5t-106 -44.5q-61 0 -105 44t-44 106z" />
<glyph unicode="&#xdc;" horiz-adv-x="518" d="M121 707q0 59 38 102t97 45v1122q0 14 16 15h355q12 0 12 -15q0 -10 -86 -41l-90 -32q-8 -2 -109 -41q-23 -6 -71 -27v-31h344q12 0 12 -12q0 -8 -86 -41l-90 -35q-29 -10 -109 -41q-23 -6 -71 -24v-107q39 14 172 66l137 53q31 12 35 12q12 0 12 -14q0 -6 -86 -41 q-92 -37 -199 -78q-23 -6 -71 -26v-107q39 14 172 66l137 53q31 12 35 12q12 0 12 -14q0 -6 -86 -41q-92 -37 -199 -78q-23 -6 -71 -27v-526q59 -2 97 -45t38 -102q0 -63 -43 -106.5t-107 -43.5q-63 0 -105 43t-42 107z" />
<glyph unicode="&#xdd;" horiz-adv-x="518" d="M111 705q0 59 38.5 102t98.5 47v1122q0 14 16 15h354q10 0 11 -15q0 -10 -17.5 -16t-66.5 -25l-90 -32q-29 -10 -111 -41q-18 -6 -72 -27v-31h346q10 0 11 -14q0 -10 -84 -41l-90 -33q-29 -10 -111 -41q-18 -6 -72 -26v-107q14 4 174 68q37 14 138 53q29 12 32 12 q12 0 13 -14q0 -8 -84 -41q-55 -23 -201 -78q-23 -6 -72 -29v-104q39 10 174 66q31 12 138 53l32 12q13 0 13 -14q0 -8 -84 -42t-201 -77q-23 -6 -72 -29v-104q39 12 134 49q31 12 37 12t6 -12q0 -14 -39 -29q-23 -6 -45 -14q-29 -8 -93 -37v-389q59 -4 98.5 -47t39.5 -102 q0 -61 -44 -104.5t-106 -43.5q-61 0 -105 43t-44 105z" />
<glyph unicode="&#xde;" horiz-adv-x="518" d="M117 702q0 59 39 102.5t98 45.5v1122q0 14 16 15h355q10 0 10 -15q0 -10 -84 -41l-90 -33q-29 -10 -111 -40q-18 -6 -69 -27v-31h344q10 0 10 -12q0 -8 -84 -41l-90 -35q-55 -23 -111 -41q-18 -6 -69 -24v-107q53 18 172 66q66 27 137 53q16 6 33 12q12 0 12 -14 q0 -8 -84 -42t-201 -77q-23 -6 -69 -27v-106q53 18 172 65q66 27 137 54q16 6 33 12q12 0 12 -14q0 -8 -84 -42t-201 -77q-23 -6 -69 -27v-106q53 18 172 65q66 27 137 54q16 6 33 12q12 0 12 -12q0 -10 -84 -44t-201 -77q-23 -6 -69 -27v-391q59 -2 97 -45t38 -103 q0 -63 -43 -106t-107 -43q-63 0 -106 43t-43 106z" />
<glyph unicode="&#xdf;" horiz-adv-x="518" d="M113 698q0 59 37.5 102.5t97.5 45.5v1122q0 14 16 14h354q12 0 13 -14q0 -8 -84 -39l-201 -76q-23 -6 -72 -26v-31h344q12 0 13 -12q0 -10 -84 -41l-92 -35q-20 -8 -109 -39q-12 -4 -72 -27v-106q39 14 172 66q39 14 140 53q31 12 32 12q12 0 13 -14q0 -8 -84 -41 q-76 -31 -201 -78q-23 -6 -72 -27v-106q39 14 172 65q39 14 140 54q31 12 32 12q12 0 13 -12q0 -10 -84 -43q-76 -31 -201 -78q-23 -6 -72 -27v-106q39 14 172 65q39 14 140 53q31 12 32 13q13 -1 13 -13q0 -10 -15 -14q-37 -16 -270 -106q-23 -6 -72 -27v-107h2 q33 12 117 44q8 4 29 12q14 4 16 4q12 0 13 -12q0 -10 -86 -41q-2 0 -91 -35v-256q59 -2 97.5 -45t38.5 -103q0 -61 -43 -105t-105 -44q-61 0 -105 44t-44 105z" />
<glyph unicode="&#xe0;" horiz-adv-x="518" d="M119 698q0 59 38 102.5t97 45.5v1122q0 14 16 14h355q12 0 12 -14q0 -6 -86 -39l-90 -35q-29 -10 -109 -41q-23 -6 -71 -26v-31h344q12 0 12 -12q0 -8 -86 -41l-90 -35q-14 -6 -109 -39q-12 -4 -71 -27v-106q39 14 172 66l137 53q31 12 35 12q12 0 12 -14q0 -6 -86 -41 q-92 -37 -199 -78q-23 -6 -71 -27v-106q39 14 172 65l137 54q31 12 35 12q12 0 12 -12q0 -8 -86 -43q-92 -37 -199 -78q-23 -6 -71 -27v-106q39 14 172 65l137 53q31 12 35 13q12 0 12 -13q0 -10 -14 -14q-78 -33 -271 -106q-23 -6 -71 -27v-107q39 14 172 66l137 53 q31 12 35 13q12 -1 12 -13q0 -10 -14 -14q-78 -33 -271 -107q-23 -6 -71 -26v-256q59 -2 97 -45t38 -103q0 -61 -44 -105t-106 -44q-61 0 -104 44t-43 105z" />
<glyph unicode="&#xe1;" horiz-adv-x="518" d="M111 698q0 59 37.5 102.5t97.5 45.5v1122q0 14 16 14h356q10 0 11 -14q0 -8 -84 -39l-201 -76q-23 -6 -72 -26v-31h346q10 0 11 -12q0 -10 -84 -41l-92 -35q-20 -8 -109 -39q-12 -4 -72 -27v-106q39 14 172 66q39 14 140 53q31 12 32 12q12 0 13 -14q0 -8 -84 -41 q-76 -31 -201 -78q-23 -6 -72 -27v-106q39 14 172 65q39 14 140 54q31 12 32 12q12 0 13 -12q0 -10 -84 -43q-76 -31 -201 -78q-23 -6 -72 -27v-106q39 14 172 65q39 14 140 53q31 12 32 13q12 0 13 -13q0 -10 -15 -14q-37 -16 -270 -106q-23 -6 -72 -27v-107q39 14 172 66 q39 14 140 53q31 12 32 13q13 -1 13 -13q0 -10 -15 -14q-37 -16 -270 -107q-23 -6 -72 -26v-107h2l117 45q8 2 29 11q14 4 16 4q12 0 13 -13q0 -10 -87 -41q-2 0 -90 -34v-121q59 -2 97.5 -45t38.5 -103q0 -61 -43 -105t-105 -44q-61 0 -105 44t-44 105z" />
<glyph unicode="&#xe3;" horiz-adv-x="348" d="M98 571v766q20 8 40 9.5t20 5.5v-2q106 18 204 32q27 6 44 9q20 0 20 -62q0 -4 -129 -24q-43 -6 -139 -27v-707h-60z" />
<glyph unicode="&#xe4;" horiz-adv-x="487" d="M147 551v727q0 8 35 8q2 0 4 -2h2q6 2 33 8t156 37l147 33q23 6 39 8q14 0 15 -74q0 -6 -91 -24q-82 -20 -215 -49q-20 -4 -75 -17v-655h-50z" />
<glyph unicode="&#xe5;" horiz-adv-x="487" d="M141 549v729q0 8 35 8h2l2 -2q4 2 33 8q47 10 158 35l149 33q35 8 39 8q12 0 12 -72q0 -4 -14 -8q-96 -23 -291 -65q-25 -4 -76 -17v-63q57 12 142 33l30 6q14 0 15 -72q0 -10 -90 -27q-31 -4 -97 -20v-514h-49z" />
<glyph unicode="&#xe6;" horiz-adv-x="487" d="M141 551v731q0 6 35 6h6q2 2 33 6q100 23 303 68l39 8q14 0 14 -72q0 -4 -16 -8q-35 -10 -289 -65q-20 -4 -76 -17v-63q27 6 187 43q29 6 145 33q29 4 35 6q14 0 14 -72q0 -6 -16 -8q-35 -10 -289 -66q-20 -4 -76 -16v-514h-49z" />
<glyph unicode="&#xe7;" horiz-adv-x="487" d="M141 543v727q0 8 37 8h2h2q6 0 33 8q47 10 156 35l149 33q35 8 39 8q12 0 12 -64q0 -4 -14 -8q-94 -23 -289 -65q-25 -4 -75 -19v-63q4 0 184 41q10 4 59 14t85 19.5t38 9.5q12 0 12 -64q0 -6 -90 -28q-61 -12 -213 -45q-25 -4 -75 -19v-55l139 33q29 8 33 8q14 0 14 -64 q0 -4 -92 -24q-25 -6 -94 -25v-401h-52z" />
<glyph unicode="&#xe8;" horiz-adv-x="487" d="M139 549v729q0 6 35 6h4h2q6 4 33 8q102 23 305 68q23 6 37 8q14 0 14 -63q0 -4 -14 -9q-94 -23 -291 -65q-20 -4 -76 -19v-63q33 8 187 43q10 2 59 12t86 21q16 4 35 8q14 0 14 -64q0 -6 -14 -10q-94 -20 -291 -63q-20 -4 -76 -19v-55q33 6 187 41q10 4 59 14t86 19 q16 4 35 8q14 0 14 -64q0 -4 -14 -8q-94 -23 -291 -65q-20 -4 -76 -19v-399h-49z" />
<glyph unicode="&#xe9;" horiz-adv-x="487" d="M141 543v727q0 8 35 8h2h2q4 0 33 8q41 6 158 35l149 33q35 8 39 8q12 0 12 -64q0 -4 -92 -26q-59 -12 -213 -47q-25 -4 -76 -19v-63q4 0 185 43q12 2 61 12t85 19.5t38 9.5q12 0 12 -64q0 -6 -92 -28q-59 -12 -213 -45q-25 -4 -76 -19v-55q4 4 185 43q12 4 61 15 t85 18.5t38 7.5q12 0 12 -64q0 -6 -14 -8q-45 -14 -291 -65q-35 -6 -76 -19v-53l140 33q29 6 32 6q14 0 15 -64q0 -6 -90 -26q-27 -6 -97 -23v-274h-49z" />
<glyph unicode="&#xea;" horiz-adv-x="489" d="M150 549v729q0 6 34 6h6q57 12 189 43q51 10 147 33q23 6 39 8q14 0 15 -63q0 -4 -91 -27q-10 -2 -215 -47q-20 -4 -75 -19v-63q27 8 184 43l147 33q31 6 35 6q14 0 15 -64q0 -4 -17 -6q-61 -20 -289 -67q-20 -2 -75 -19v-55q25 8 184 43l147 35q31 6 35 6q14 0 15 -64 q0 -4 -91 -26q-76 -16 -215 -47q-20 -4 -75 -19v-53q27 4 184 41q41 8 147 33l35 8q14 0 15 -64q0 -6 -17 -8q-61 -18 -289 -67q-20 -4 -75 -17v-272h-49z" />
<glyph unicode="&#xeb;" horiz-adv-x="487" d="M141 549v729q0 6 35 6h2h4q6 4 31 8q47 10 158 35l149 33q23 6 39 8q12 0 12 -63q0 -4 -14 -9q-96 -23 -291 -65q-25 -4 -76 -19v-63q31 8 185 43q12 2 61 12t85 19.5t38 9.5q12 0 12 -64q0 -6 -14 -10q-96 -20 -291 -63q-25 -4 -76 -19v-55q4 4 185 43q12 4 61 15.5 t85 18.5t38 7q12 0 12 -64q0 -4 -14 -8q-96 -23 -291 -65q-25 -4 -76 -19v-53q4 0 185 41q12 2 61 13.5t85 19.5t38 8q12 0 12 -64q0 -6 -92 -28q-59 -12 -213 -45q-25 -4 -76 -19v-53l140 33q31 6 35 6q14 0 14 -61q0 -6 -92 -27q-27 -6 -97 -23v-149h-49z" />
<glyph unicode="&#xec;" d="M154 571v809q0 10 36 11h381q12 0 13 -11q0 -6 -92 -28l-97 -27q-31 -6 -116 -31q-25 -4 -76 -20v-703h-49z" />
<glyph unicode="&#xed;" d="M160 569v811q0 8 37 9h381q12 0 12 -9q0 -6 -92 -28l-95 -25q-25 -6 -116 -29q-37 -8 -68 -14l-12 -4v-55q14 2 143 37q23 4 31 6q16 0 16 -64q0 -6 -92 -30q-29 -6 -98 -23v-582h-47z" />
<glyph unicode="&#xee;" d="M152 575v811q0 8 38 9h379q12 0 13 -9q0 -10 -93 -30l-94 -23q-33 -8 -116 -28q-23 -4 -76 -19v-55q2 0 184 45q39 12 145 39q33 8 37 8q12 0 13 -63q0 -8 -41 -21q-25 -4 -52 -10q-59 -16 -210 -53q-23 -6 -76 -19v-582h-51z" />
<glyph unicode="&#xef;" d="M152 575v811q0 8 36 9h381q12 0 13 -11q0 -8 -19.5 -11t-73.5 -15l-94 -25q-33 -6 -116 -26q-27 -6 -76 -19v-61q33 6 184 45q39 10 145 37q33 8 37 8q12 0 13 -72q0 -6 -15 -10q-133 -35 -288 -72q-23 -6 -76 -20v-64q76 20 139 35q31 8 33 8q14 0 14 -69q0 -8 -92 -31 q-29 -6 -94 -25v-422h-51z" />
<glyph unicode="&#xf0;" d="M152 571v809q0 10 36 11h381q12 0 13 -11q0 -6 -93 -28l-94 -27q-25 -6 -116 -31q-23 -4 -76 -18v-70q41 10 184 51q39 8 145 37q33 10 37 11q12 0 13 -68q0 -8 -93 -33q-59 -16 -210 -59q-27 -2 -76 -19v-63q41 12 184 49q39 12 145 39q33 10 37 10q12 0 13 -67 q0 -8 -93 -33q-27 -8 -210 -60q-27 -4 -76 -18v-412h-51z" />
<glyph unicode="&#xf1;" d="M154 578v811q0 8 36 8h381q12 0 13 -8q0 -6 -92 -29l-95 -25q-25 -6 -116 -28q-23 -4 -76 -17v-65q41 10 184 47q39 8 146 35q33 10 36 10q12 0 13 -64q0 -8 -92 -30q-59 -16 -211 -56q-27 -2 -76 -18v-59q41 10 184 45q39 10 146 36q33 8 36 9q12 0 13 -66q0 -4 -92 -27 q-59 -16 -211 -55q-27 -4 -76 -20v-60q10 4 139 37q23 6 31 6q16 0 16 -63q0 -6 -92 -29q-33 -8 -94 -24v-301h-51z" />
<glyph unicode="&#xf2;" d="M152 578v808q0 10 36 11h383q10 0 11 -11q0 -6 -90 -28l-99 -27q-31 -6 -117 -31q-10 -2 -75 -18v-70q2 0 184 52q41 8 147 36q33 10 37 11q12 0 13 -68q0 -10 -90 -33l-216 -59q-23 -2 -75 -18v-66q2 0 184 49q41 12 147 39q33 10 37 10q12 0 13 -69q0 -8 -90 -31 l-216 -59q-23 -4 -75 -19v-65q2 0 184 49q41 12 147 39q33 10 37 10q12 0 13 -68q0 -10 -90 -32l-216 -60q-23 -4 -75 -18v-264h-49z" />
<glyph unicode="&#xf3;" d="M158 571v809q0 10 37 11h380q12 0 13 -11q0 -6 -92 -28l-97 -27q-45 -12 -116 -31l-78 -18v-70q4 0 186 51q39 8 146 37q31 8 36 11q14 0 15 -68q0 -10 -92 -33q-45 -12 -213 -59q-25 -2 -78 -19v-65q4 0 186 49q39 12 146 39q31 8 36 10q14 0 15 -67q0 -10 -92 -33 q-45 -12 -213 -60q-25 -4 -78 -18v-63q4 0 186 49q39 12 146 41q31 6 36 8q14 0 15 -68q0 -10 -92 -33q-45 -12 -213 -59q-25 -4 -78 -18v-66q41 12 141 41q23 4 33 6q16 0 16 -67q0 -6 -92 -31q-49 -12 -98 -29v-121h-47z" />
<glyph unicode="&#xf4;" d="M152 575v809q0 10 36 11h381q12 0 13 -11q0 -8 -19 -10q-12 -2 -74 -18l-96 -27q-31 -10 -117 -31q-23 -4 -77 -20v-68q35 6 186 50q39 10 145 38q31 10 37 11q14 0 15 -68q0 -8 -17 -12q-61 -18 -289 -78q-31 -8 -77 -21v-65q35 6 186 49q39 12 145 39q31 8 37 10 q14 0 15 -67q0 -10 -17 -13q-61 -18 -289 -79q-31 -6 -77 -19v-67q35 4 186 49q39 12 145 39q31 8 37 10q14 0 15 -70q0 -8 -17 -10q-59 -18 -289 -80q-25 -4 -77 -20v-64q39 6 186 49l145 39q31 8 37 10q14 0 15 -69q0 -8 -17 -10q-59 -20 -289 -80q-25 -4 -77 -21v-115 h-47z" />
<glyph unicode="&#xf5;" d="M152 555v811q0 8 36 8h381q12 0 13 -8q0 -10 -19.5 -13t-73.5 -18l-94 -24q-25 -6 -116 -29q-33 -10 -66 -16l-10 -4v-70q41 12 184 49q47 12 145 37q33 10 37 10q12 0 13 -65q0 -10 -16.5 -13.5t-286.5 -74.5q-27 -4 -76 -19v-63q41 8 184 47q47 14 145 39q33 8 37 8 q12 0 13 -68q0 -4 -93 -28q-59 -16 -210 -58q-27 -4 -76 -20v-62q41 8 184 47q47 12 145 39q33 8 37 9q12 0 13 -68q0 -4 -93 -29q-59 -16 -210 -57q-27 -4 -76 -21v-61q41 12 184 49q47 12 145 37q33 10 37 10q12 0 13 -65q0 -8 -93 -33q-59 -16 -210 -53q-27 -6 -76 -21 v-61l14 2q25 6 111 29q14 4 30 8l15 4q16 0 16 -64q0 -10 -92 -30q-27 -6 -94 -27h-51z" />
<glyph unicode="&#xf6;" horiz-adv-x="518" d="M150 561v709q0 8 38 8h379q12 0 13 -8q0 -4 -93 -25l-96 -22q-31 -6 -117 -27q-23 -4 -75 -16v-19h368q12 0 13 -8q0 -6 -93 -27l-96 -20q-31 -8 -117 -25q-12 -4 -75 -18v-502h-49z" />
<glyph unicode="&#xf7;" horiz-adv-x="518" d="M141 561v707q0 10 39 10h379q12 0 12 -8t-16 -11.5t-76 -15.5l-96 -20q-8 -2 -117 -27q-23 -4 -76 -16v-19h369q12 0 12 -10q0 -6 -92 -25l-96 -22q-8 0 -117 -25q-23 -4 -76 -16v-55q14 4 140 32q16 4 32 7q16 0 17 -60q0 -4 -92 -26q-37 -6 -97 -23v-377h-49z" />
<glyph unicode="&#xf8;" horiz-adv-x="518" d="M156 569v709q0 8 39 8h378q12 0 13 -8q0 -4 -92 -25l-97 -22q-31 -6 -116 -27q-23 -4 -76 -14v-21h368q12 0 13 -8q0 -6 -92 -26l-97 -21q-31 -8 -116 -24q-12 -4 -76 -19v-55q41 8 184 41l146 33q33 8 38 8q12 0 13 -60q0 -4 -92 -26q-98 -23 -213 -49q-23 -4 -76 -17 v-377h-49z" />
<glyph unicode="&#xf9;" horiz-adv-x="518" d="M150 569v709q0 8 38 8h381q10 0 11 -8q0 -6 -91 -25l-96 -20q-31 -8 -117 -27q-14 -2 -77 -16v-21h370q10 0 11 -8q0 -6 -17 -10q-25 -6 -74 -16l-96 -21q-10 -2 -117 -24q-25 -4 -77 -19v-55q2 0 184 41q43 10 147 33q18 4 37 8q12 0 13 -60q0 -6 -17 -8 q-80 -23 -287 -65l-8 -2q-35 -8 -69 -17v-53q39 8 141 33q14 4 33 6q12 0 12 -60q0 -4 -90 -26q-43 -10 -96 -23v-254h-49z" />
<glyph unicode="&#xfa;" horiz-adv-x="518" d="M152 565v809q0 10 38 10h379q12 0 13 -10q0 -8 -93 -28l-96 -25q-8 -2 -117 -31q-23 -4 -75 -18v-21h368q12 0 13 -10q0 -6 -93 -31l-96 -24q-31 -8 -117 -29q-23 -4 -75 -18v-64q33 4 184 47q8 0 113 29l32 8q33 10 39 10q12 0 13 -69q0 -4 -93 -29q-98 -27 -213 -57 q-23 -4 -75 -19v-63q41 10 184 47l145 39q33 8 39 8q12 0 13 -68q0 -4 -93 -30q-98 -25 -213 -56q-23 -6 -75 -18v-289h-49z" />
<glyph unicode="&#xfb;" horiz-adv-x="518" d="M143 565v809q0 10 39 10h381q10 0 10 -10q0 -8 -18 -12l-72 -16l-96 -25q-31 -6 -119 -31q-20 -4 -78 -18v-21h373q10 0 10 -12q0 -6 -90 -29l-96 -24q-31 -8 -119 -29q-20 -4 -78 -18v-64q14 2 187 49q41 10 147 37q31 10 37 10q12 0 12 -69q0 -6 -90 -29 q-59 -16 -215 -55q-25 -6 -78 -23v-59q41 6 187 45q33 10 147 39q18 4 37 8q12 0 12 -67q0 -6 -90 -30t-215 -57q-25 -4 -78 -20v-61q41 8 144 34q33 10 39 10.5t6 -69.5q0 -8 -41 -18q-25 -4 -49 -11q-31 -6 -99 -26v-148h-47z" />
<glyph unicode="&#xfc;" horiz-adv-x="518" d="M150 561v809q0 10 38 10h381q10 0 11 -10q0 -8 -91 -29l-96 -24q-31 -6 -119 -31q-20 -4 -75 -18v-21h370q10 0 11 -10q0 -6 -91 -31l-96 -24q-59 -14 -119 -29q-20 -4 -75 -18v-64q57 12 184 47q72 18 147 37q18 6 37 10q12 0 13 -69q0 -6 -90.5 -31t-215.5 -55 q-25 -4 -75 -19v-63q57 14 184 47q72 18 147 39q18 4 37 8q12 0 13 -68q0 -6 -90.5 -29.5t-215.5 -56.5l-75 -18v-64q57 14 184 48q72 20 147 38q18 4 37 11q12 0 13 -70q0 -6 -90.5 -30.5t-215.5 -55.5q-25 -4 -75 -20v-146h-49z" />
<glyph unicode="&#xfd;" horiz-adv-x="518" d="M143 557v809q0 10 39 10h379q12 0 12 -10q0 -6 -90 -27l-215 -57q-23 -4 -75 -18v-21h368q12 0 12 -10q0 -6 -90 -31l-98 -24q-23 -4 -117 -27q-12 -4 -75 -21v-61q41 10 184 47q41 10 147 37q35 10 37 10q12 0 12 -69q0 -6 -90 -29q-80 -23 -215 -55q-23 -6 -75 -21v-61 q41 8 184 45q41 10 147 39q35 8 37 8q12 0 12 -68q0 -6 -90 -30q-80 -20 -215 -56q-23 -4 -75 -18v-64q41 12 184 47q41 10 147 39q35 10 37 11q12 0 12 -68q0 -8 -14 -12q-41 -12 -291 -76q-23 -4 -75 -20v-62h2q35 8 124 31q8 2 31 10q14 2 17 2q14 0 14 -68q0 -8 -92 -28 q-2 0 -96 -27v-6h-50z" />
<glyph unicode="&#xfe;" horiz-adv-x="518" d="M150 557v809q0 10 38 10h379q12 0 13 -10q0 -4 -93 -27l-96 -26q-31 -6 -117 -31q-23 -4 -75 -18v-21h368q12 0 13 -10q0 -6 -93 -31l-96 -24q-14 -2 -117 -27q-12 -4 -75 -21v-63q41 10 184 47l145 37q33 10 39 10q12 0 13 -59q0 -2 -93 -27q-98 -27 -213 -57 q-23 -4 -75 -19v-63q41 10 184 47l145 37q33 10 39 10q12 0 13 -63q0 -4 -93 -31q-98 -25 -213 -55q-23 -6 -75 -19v-65q41 10 184 45l145 41q33 8 39 8q12 0 13 -68q0 -6 -15 -10q-84 -25 -291 -76q-23 -4 -75 -20v-62q41 10 184 47l145 37q33 10 39 11q12 0 13 -72 q0 -6 -15 -8q-84 -25 -291 -78q-23 -4 -75 -19v-16h-49z" />
<glyph unicode="&#xff;" horiz-adv-x="518" d="M141 467v854q0 8 39 8h381q10 0 10 -8q0 -6 -90 -25l-215 -49q-23 -4 -76 -16v-19h371q10 0 10 -8q0 -6 -90 -26l-98 -23q-23 -4 -117 -22q-12 -4 -76 -19v-59q41 8 185 41q41 8 147 32q35 8 37 9q12 0 12 -66q0 -4 -90 -24q-80 -20 -215 -50q-23 -4 -76 -16v-53 q41 8 185 41q41 8 147 32q35 8 37 9q12 0 12 -60q0 -6 -90 -26q-80 -18 -215 -50q-23 -4 -76 -16v-57q41 10 185 41q41 10 147 35q35 8 37 8q12 0 12 -60q0 -6 -14 -10q-41 -10 -291 -65q-23 -4 -76 -19v-53q41 8 185 41q41 8 147 33q35 8 37 8q12 0 12 -60q0 -6 -14 -8 q-41 -10 -291 -67q-23 -4 -76 -17v-47h3l124 29q8 2 31 6q14 2 17 2q14 0 14 -57q0 -8 -92 -27q-2 0 -97 -22v-25h-49z" />
<glyph unicode="&#x2000;" horiz-adv-x="1005" />
<glyph unicode="&#x2001;" horiz-adv-x="2011" />
<glyph unicode="&#x2002;" horiz-adv-x="1005" />
<glyph unicode="&#x2003;" horiz-adv-x="2011" />
<glyph unicode="&#x2004;" horiz-adv-x="670" />
<glyph unicode="&#x2005;" horiz-adv-x="502" />
<glyph unicode="&#x2006;" horiz-adv-x="335" />
<glyph unicode="&#x2007;" horiz-adv-x="335" />
<glyph unicode="&#x2008;" horiz-adv-x="251" />
<glyph unicode="&#x2009;" horiz-adv-x="402" />
<glyph unicode="&#x200a;" horiz-adv-x="111" />
<glyph unicode="&#x2010;" d="M121 717q0 61 39 105t100 46v1117q0 12 16 12h367q12 0 12 -15q0 -10 -18.5 -16t-69.5 -24l-92 -35q-31 -10 -113 -43q-25 -6 -73 -27v-117q33 10 178 68q39 14 141 55q31 12 35 12q12 0 12 -14q0 -10 -14 -14q-127 -53 -279 -109q-20 -8 -73 -28v-109q74 27 135 51 q31 12 33 13q12 0 12 -15q0 -8 -88 -43q-29 -8 -92 -37v-682q61 -2 100 -46t39 -105q0 -63 -45 -108.5t-109 -45.5q-63 0 -108 45t-45 109zM150 717q0 -53 35.5 -90t88.5 -37q51 0 89 38t38 89t-37.5 88t-89.5 37q-51 0 -87.5 -37t-36.5 -88z" />
<glyph unicode="&#x2011;" d="M121 717q0 61 39 105t100 46v1117q0 12 16 12h367q12 0 12 -15q0 -10 -18.5 -16t-69.5 -24l-92 -35q-31 -10 -113 -43q-25 -6 -73 -27v-117q33 10 178 68q39 14 141 55q31 12 35 12q12 0 12 -14q0 -10 -14 -14q-127 -53 -279 -109q-20 -8 -73 -28v-109q74 27 135 51 q31 12 33 13q12 0 12 -15q0 -8 -88 -43q-29 -8 -92 -37v-682q61 -2 100 -46t39 -105q0 -63 -45 -108.5t-109 -45.5q-63 0 -108 45t-45 109zM150 717q0 -53 35.5 -90t88.5 -37q51 0 89 38t38 89t-37.5 88t-89.5 37q-51 0 -87.5 -37t-36.5 -88z" />
<glyph unicode="&#x2012;" d="M121 717q0 61 39 105t100 46v1117q0 12 16 12h367q12 0 12 -15q0 -10 -18.5 -16t-69.5 -24l-92 -35q-31 -10 -113 -43q-25 -6 -73 -27v-117q33 10 178 68q39 14 141 55q31 12 35 12q12 0 12 -14q0 -10 -14 -14q-127 -53 -279 -109q-20 -8 -73 -28v-109q74 27 135 51 q31 12 33 13q12 0 12 -15q0 -8 -88 -43q-29 -8 -92 -37v-682q61 -2 100 -46t39 -105q0 -63 -45 -108.5t-109 -45.5q-63 0 -108 45t-45 109zM150 717q0 -53 35.5 -90t88.5 -37q51 0 89 38t38 89t-37.5 88t-89.5 37q-51 0 -87.5 -37t-36.5 -88z" />
<glyph unicode="&#x2013;" horiz-adv-x="1024" d="M121 717q0 61 75 105t192 46v1117q0 12 30 12h704q23 0 23 -15q0 -10 -35.5 -16t-133.5 -24l-176 -35q-60 -10 -217 -43q-48 -6 -140 -27v-117q63 10 341 68q75 14 271 55q59 12 67 12q23 0 23 -14q0 -10 -27 -14q-243 -53 -535 -109q-38 -8 -140 -28v-109q142 27 259 51 q59 12 63 13q23 0 23 -15q0 -8 -168 -43q-56 -8 -177 -37v-682q117 -2 192 -46t75 -105q0 -63 -86.5 -108.5t-209.5 -45.5q-120 0 -206.5 45t-86.5 109zM177 717q0 -53 68 -90t169 -37q98 0 171 38t73 89t-72 88t-172 37q-97 0 -167 -37t-70 -88z" />
<glyph unicode="&#x2014;" horiz-adv-x="2048" d="M121 717q0 61 149.5 105t383.5 46v1117q0 12 61 12h1408q46 0 46 -15q0 -10 -71 -16t-266 -24l-353 -35q-119 -10 -434 -43q-96 -6 -280 -27v-117q127 10 683 68q150 14 541 55q119 12 134 12q46 0 46 -14q0 -10 -54 -14q-487 -53 -1070 -109q-76 -8 -280 -28v-109 q284 27 518 51q119 12 127 13q46 0 46 -15q0 -8 -338 -43q-111 -8 -353 -37v-682q234 -2 383.5 -46t149.5 -105q0 -63 -172.5 -108.5t-417.5 -45.5q-242 0 -414.5 45t-172.5 109zM232 717q0 -53 136.5 -90t339.5 -37q195 0 341 38t146 89t-144 88t-343 37q-196 0 -336 -37 t-140 -88z" />
<glyph unicode="&#x202f;" horiz-adv-x="402" />
<glyph unicode="&#x205f;" horiz-adv-x="502" />
<glyph unicode="&#x25fc;" horiz-adv-x="1976" d="M0 0v1976h1976v-1976h-1976z" />
</font>
</defs>
</svg>
